<svg width="18" height="28" viewBox="0 0 18 28" fill="none" xmlns="http://www.w3.org/2000/svg">
<g clip-path="url(#clip0_1142_193)">
<path d="M16.9859 19.7641C17.6695 20.4477 17.6695 21.5551 16.9859 22.2387C16.6469 22.5805 16.1984 22.75 15.75 22.75C15.3016 22.75 14.8542 22.5791 14.513 22.2373L8.75 16.4774L2.98758 22.236C2.64578 22.5805 2.19789 22.75 1.75 22.75C1.30211 22.75 0.854766 22.5805 0.512695 22.236C-0.170898 21.5524 -0.170898 20.4449 0.512695 19.7613L6.27676 13.9973L0.512695 8.23596C-0.170898 7.55237 -0.170898 6.44495 0.512695 5.76135C1.19629 5.07776 2.30371 5.07776 2.9873 5.76135L8.75 11.5281L14.5141 5.76409C15.1977 5.08049 16.3051 5.08049 16.9887 5.76409C17.6723 6.44768 17.6723 7.5551 16.9887 8.23869L11.2246 14.0028L16.9859 19.7641Z" fill="#C4C4C4"/>
</g>
<defs>
<clipPath id="clip0_1142_193">
<rect width="17.5" height="28" fill="white"/>
</clipPath>
</defs>
</svg>
