<svg width="57" height="50" viewBox="0 0 57 50" fill="none" xmlns="http://www.w3.org/2000/svg">
<g clip-path="url(#clip0_1142_203)">
<path d="M37.2251 14.6778L51.2583 16.7481C52.4204 16.9141 53.397 17.7344 53.768 18.8575C54.1391 19.9903 53.8364 21.2207 52.9966 22.0606L42.8208 32.0411L45.2231 46.3575C45.4184 47.5294 44.9399 48.7208 43.9634 49.4141C42.9966 50.1075 41.7173 50.1954 40.6724 49.6387L28.1333 42.9493L15.604 49.6387C14.5493 50.1954 13.27 50.1075 12.3032 49.4141C11.3364 48.7208 10.8481 47.5294 11.0532 46.3575L13.4556 32.0411L3.27784 22.0606C2.43702 21.2207 2.13819 19.9903 2.50733 18.8575C2.87549 17.7344 3.84912 16.9141 5.02002 16.7481L19.0415 14.6778L25.3306 1.75492C25.8481 0.679136 26.9419 -0.00378418 28.1333 -0.00378418C29.3345 -0.00378418 30.4282 0.679136 30.9458 1.75492L37.2251 14.6778Z" fill="#00B5F6"/>
</g>
<defs>
<clipPath id="clip0_1142_203">
<rect width="56.25" height="50" fill="white"/>
</clipPath>
</defs>
</svg>
