<svg width="44" height="50" viewBox="0 0 44 50" fill="none" xmlns="http://www.w3.org/2000/svg">
<path d="M26.5625 0C28.291 0 29.6875 1.39941 29.6875 3.125C29.6875 4.85059 28.291 6.25 26.5625 6.25H25V9.61426C28.6621 10.1758 32.002 11.7188 34.7363 13.9648L36.8555 11.8555C38.0762 10.6348 40.0488 10.6348 41.2695 11.8555C42.4902 13.0762 42.4902 15.0488 41.2695 16.2695L38.916 18.6328C40.9863 21.8066 42.1875 25.6055 42.1875 29.6875C42.1875 40.9082 33.0957 50 21.875 50C10.6543 50 1.5625 40.9082 1.5625 29.6875C1.5625 19.5312 9.01562 11.1133 18.75 9.61426V6.25H17.1875C15.459 6.25 14.0625 4.85059 14.0625 3.125C14.0625 1.39941 15.459 0 17.1875 0H26.5625ZM24.2188 18.75C24.2188 17.4512 23.1738 16.4062 21.875 16.4062C20.5762 16.4062 19.5312 17.4512 19.5312 18.75V31.25C19.5312 32.5488 20.5762 33.5938 21.875 33.5938C23.1738 33.5938 24.2188 32.5488 24.2188 31.25V18.75Z" fill="#D8D8D8"/>
</svg>
