<svg width="91" height="51" viewBox="0 0 91 51" fill="none" xmlns="http://www.w3.org/2000/svg">
<g opacity="0.5" clip-path="url(#clip0)">
<path d="M0.208041 29.5907C0.0883829 23.383 4.55389 20.0767 8.80368 16.5419C11.6854 14.1869 13.1254 12.1507 13.1254 8.27913C13.1254 5.16582 11.7257 2.17189 8.24491 2.17189C7.48689 2.17189 5.21146 2.45155 5.21146 3.52957C5.21146 3.68903 5.33112 3.84903 5.49085 3.84903C7.68642 3.92862 9.36273 5.72459 9.36273 7.92016C9.36273 10.3948 7.36696 11.9117 5.01194 11.9117C2.4176 11.9117 0.620808 9.91593 0.620808 7.40118C0.620808 2.97053 5.61023 0.774414 11.0838 0.774414C20.9089 0.774414 23.7426 5.36534 23.7426 9.0377C23.7426 13.6281 21.6672 15.544 13.1992 17.7516C11.0838 18.3109 9.48678 18.5903 7.53108 19.628C6.41354 20.2269 4.05852 21.6238 4.05852 23.0586C4.05852 23.3377 4.3379 23.4173 4.53742 23.4173C4.8964 23.4173 5.57538 22.8198 6.89244 22.2223C8.20951 21.6249 10.1257 21.0661 12.8798 21.0661C14.4364 21.0661 16.2327 21.3051 17.7495 21.5447C21.7411 22.1826 22.8188 21.5047 23.2179 19.589H24.3917C24.2745 23.3764 22.9785 25.7676 21.342 27.321C19.5057 29.0736 17.1907 29.5915 13.7978 29.5915C12.6404 29.5915 11.2034 29.392 8.02645 28.5963C6.62952 28.2396 5.23232 27.8803 4.03491 27.8803C2.91737 27.8803 1.71996 28.4372 1.4403 29.5915L0.208041 29.5907Z" fill="#979797"/>
<path d="M53.0462 0.77002H54.5609V10.4305H53.4455C51.8494 6.87726 48.4163 2.64558 44.2052 2.64558C38.9781 2.64558 39.0583 7.66794 39.0583 11.5327V24.4462C39.0583 26.0808 39.1782 28.5922 41.3323 28.5922C44.1654 28.5922 43.7653 24.9251 43.7653 22.9716V15.7956H41.4517V14.6803H57.4736V15.7956H55.3184V26.4398C53.6791 26.4398 52.1998 26.7189 50.7208 27.2768C45.4046 29.2709 43.9256 29.5904 41.1328 29.5904C32.2682 29.5904 26.1558 23.928 26.1558 15.5566C26.1558 5.0371 34.7042 0.77002 41.0927 0.77002C44.0054 0.77002 46.8836 1.40865 49.322 3.04463L53.0462 0.77002Z" fill="#979797"/>
<path d="M73.0417 15.1502H73.999C75.9928 15.1502 77.5081 15.7504 77.5081 18.8294V24.0681C77.5081 25.1875 77.4285 27.9465 74.3978 27.9465H73.0417V15.1502ZM73.0417 2.41236H73.9589C75.9953 2.41236 77.0327 3.29059 77.0327 5.36759V10.9196C77.0327 12.717 76.3142 14.0349 74.7576 14.0349H73.0412L73.0417 2.41236ZM75.3567 29.0034C80.9049 29.0034 90.1768 29.5221 90.1768 21.64C90.1768 17.3749 86.5401 15.4977 82.8235 15.1384C81.9758 15.0586 81.0978 14.9784 80.2597 14.9386V14.1523C84.1727 14.0725 89.478 12.7968 89.478 7.93339C89.478 2.81278 83.814 1.35547 79.7055 1.35547H57.7985V2.41236H60.8322V27.9471H57.7985V29.004L75.3567 29.0034Z" fill="#979797"/>
<path d="M10.6579 43.1252C10.294 42.9981 8.59517 42.4448 8.17088 42.4448C7.86899 42.4448 7.41231 42.829 7.23008 42.9767C6.62328 43.5294 6.41113 44.2523 6.41113 44.9321C6.41113 46.5686 7.86762 47.8871 10.294 47.8871C11.9017 47.8871 13.752 46.9087 13.752 45.719C13.752 44.3588 12.2656 43.6571 10.6579 43.1252Z" fill="#979797"/>
<path d="M54.2267 43.3432H58.6488L56.5106 38.7627L54.2267 43.3432Z" fill="#979797"/>
<path d="M11.5681 39.9369C11.6894 39.9586 11.9317 40.0437 12.0533 40.0437C12.2962 40.0437 12.5083 39.8093 12.6601 39.7037C13.1456 39.2566 13.4488 38.7675 13.4488 38.1942C13.4488 36.7918 12.2962 35.5378 10.1119 35.5378C8.56508 35.5378 7.04822 36.2602 7.04822 37.4293C7.04822 38.8954 9.99083 39.4904 11.5681 39.9369Z" fill="#979797"/>
<path d="M0.276733 33.1123V50.2251H90.2829V33.1123H0.276733ZM15.2066 47.6744C13.752 48.3759 11.7486 48.6948 9.9589 48.6948C6.95619 48.6948 2.46654 47.844 2.46654 45.2296C2.46654 44.3583 2.83073 43.6571 3.80144 43.0824C4.40796 42.7215 5.37841 42.3598 6.16744 42.2113C6.28874 42.1901 6.62219 42.1051 6.62219 41.9989C6.62219 41.9143 6.25855 41.8067 6.16744 41.7653C4.34759 41.1483 3.16418 40.0637 3.16418 38.6196C3.16418 37.4285 3.95293 36.4935 5.31803 35.7928C6.77259 35.0277 8.62455 34.8155 10.4139 34.8155C11.779 34.8155 13.2956 34.9429 14.5092 35.3888C15.8743 35.8782 17.0267 36.7495 17.0267 37.8764C17.0267 39.0873 15.6918 39.8963 14.145 40.2141C14.0539 40.2361 13.5083 40.3418 13.5083 40.4485C13.5083 40.5759 14.1148 40.7457 14.2361 40.7883C16.3595 41.4469 17.937 42.7868 17.937 44.4658C17.9381 45.7395 16.6944 46.9732 15.2077 47.6744H15.2066ZM32.7365 36.0412L28.0161 42.9449L24.9749 48.0427C24.8893 48.1846 24.6332 48.5403 24.4911 48.6657C24.3772 48.7719 24.0926 48.7368 23.9216 48.7368H21.5614C21.3907 48.7368 21.1966 48.6819 21.1966 48.5208C21.1966 48.3786 21.3064 48.2024 21.4192 48.0781L28.2422 39.5802C28.4977 39.2602 29.2664 38.1215 29.2664 37.8193C29.2664 37.5528 28.7823 37.6239 28.498 37.6239L21.56 37.675C21.3295 38.0197 20.9913 38.13 20.6442 38.13C20.0231 38.13 19.5189 37.6017 19.5189 36.1875C19.5189 34.7733 20.1109 34.5101 20.732 34.5101C21.0429 34.5101 21.3245 34.6198 21.5279 34.9083L23.7737 35.0806H32.9651C33.1644 35.0982 33.2495 35.1339 33.2495 35.259C33.2497 35.436 32.8515 35.8988 32.7376 36.0412H32.7365ZM45.1835 47.0297C43.2217 47.9521 40.3258 48.7038 37.8209 48.7038C36.4028 48.7038 34.4417 48.2894 34.4417 47.2356C34.4417 46.5955 35.2867 46.1622 36.253 46.1622C38.7271 46.1622 37.9732 47.8758 39.6624 47.8758C40.6282 47.8758 41.0712 47.4804 41.7348 47.0846C42.9423 46.4073 43.1893 45.4281 43.1893 44.4304C43.1893 42.6981 42.4379 41.6141 39.5118 41.6141C38.4859 41.6141 38.2943 41.4368 37.3288 41.7011C37.238 41.7384 36.8348 41.6802 36.7135 41.6802C36.4421 41.6802 36.4234 41.26 36.4234 41.0907C36.4234 40.7518 37.5102 40.4691 37.9019 40.3563C39.9841 39.7355 41.3195 39.0082 41.3195 37.3146C41.3195 36.3917 41.3228 35.7333 39.8137 35.7333C38.5166 35.7333 37.3096 36.2599 36.525 36.8621C36.3139 37.0317 36.0727 37.2578 35.7099 37.2578C35.408 37.2578 35.2274 37.1447 35.2274 36.9559C35.2274 36.4479 36.4951 35.789 37.1288 35.5442C38.4554 34.998 40.1751 34.7914 41.7452 34.7914C42.8007 34.7914 43.461 34.8852 44.3966 35.1682C45.4521 35.4701 45.9426 36.0148 45.9426 36.7874C45.9426 38.5381 42.9819 39.2914 40.9002 39.9501L42.8007 39.8939C45.9088 39.8939 47.9007 40.9483 47.9007 43.0942C47.9007 44.7518 47.2643 46.0508 45.1846 47.0297H45.1835ZM66.2883 48.4404C64.8297 48.4206 63.3713 48.3888 61.9128 48.369C60.649 48.3888 59.3605 48.4206 58.0967 48.4404V47.7268C58.8259 47.6464 60.1141 47.6867 60.1141 46.8211C60.1141 46.4987 59.7982 45.7931 59.6525 45.4909L59.142 44.3418H53.7709L53.4734 44.9264C53.2538 45.4302 52.8902 46.0752 52.8902 46.6194C52.8902 47.6074 54.008 47.6675 54.9068 47.7279V48.4415C53.8864 48.4217 52.8657 48.3899 51.8456 48.3701C50.9227 48.3899 49.9994 48.4217 49.0765 48.4415V47.7279C51.0684 47.7079 51.7729 45.773 52.4096 44.5235L57.2223 35.0389H58.389L63.3962 45.2892C63.6635 45.8334 64.1496 46.8412 64.6359 47.2443C65.0734 47.5668 65.7062 47.6675 66.2889 47.7279L66.2883 48.4404ZM87.4146 35.9295C85.058 35.8702 85.1548 36.8497 85.1307 38.4892V44.768C85.1307 45.268 85.1307 46.1279 85.3008 46.6891C85.5437 47.5289 86.467 47.6088 87.3905 47.7287V48.4423C85.9323 48.4225 84.5006 48.3907 83.0471 48.3709C81.7871 48.3907 80.5019 48.4225 79.1681 48.4423V47.7287C80.0897 47.6088 81.0113 47.5289 81.2539 46.6891C81.4237 46.1293 81.4237 45.2694 81.4237 44.768V38.4492H81.3752L76.5488 48.439H75.3851L70.3164 38.3078H70.2681V44.4466C70.2681 45.0866 70.2681 46.3664 70.6317 46.9263C71.0198 47.5262 71.8442 47.6673 72.5721 47.726V48.4395C71.5533 48.4198 70.559 48.3879 69.5408 48.3682C68.6187 48.3879 67.7196 48.4198 66.7963 48.4395V47.726C67.7198 47.6061 68.6431 47.5262 68.886 46.6864C69.0561 46.1265 69.0561 45.2667 69.0561 44.7653V36.8063C68.6187 36.1065 67.671 35.9866 66.7963 35.9262V35.2126C67.671 35.2324 68.5701 35.264 69.4439 35.2837C70.4618 35.264 71.4564 35.2324 72.4749 35.2126L77.2283 44.5438L81.5939 35.2126C82.5147 35.2324 83.4352 35.264 84.3559 35.2837C85.3255 35.264 86.2976 35.2324 87.4152 35.2126L87.4146 35.9295Z" fill="#979797"/>
</g>
<defs>
<clipPath id="clip0">
<rect width="90.0772" height="49.4555" fill="white" transform="translate(0.205566 0.769775)"/>
</clipPath>
</defs>
</svg>
