<svg width="100" height="66" viewBox="0 0 100 66" fill="none" xmlns="http://www.w3.org/2000/svg">
<g opacity="0.5">
<path fill-rule="evenodd" clip-rule="evenodd" d="M19.9191 4.85916C19.1501 4.98146 17.827 5.2793 17.669 5.36585C17.564 5.42329 17.2972 5.55718 17.0758 5.66344C16.0597 6.15163 14.7803 7.577 14.495 8.53883C14.4405 8.72252 14.3283 9.00631 14.246 9.16978C14.0537 9.55072 13.9891 9.88776 13.7832 11.5819L13.6143 12.9715L13.6367 22.3679C13.6619 32.8191 13.7248 34.1981 14.2125 34.9967C14.279 35.1055 14.3966 35.391 14.4738 35.6309C14.551 35.8708 14.6893 36.1677 14.7813 36.2907C14.8732 36.4135 15.0086 36.6297 15.0816 36.771C15.2362 37.0693 16.3911 38.226 16.685 38.3764C16.7947 38.4326 17.0151 38.5679 17.1749 38.6774C17.4407 38.8594 18.2353 39.175 19.0613 39.4267C19.9378 39.6937 22.9193 39.5852 23.5628 39.263C23.6994 39.1947 24.0226 39.0754 24.2808 38.9979C24.5392 38.9208 24.7879 38.8123 24.8338 38.7568C24.8797 38.7016 25.0929 38.5628 25.3077 38.4483C25.7678 38.203 26.8475 37.1549 27.1162 36.6921C27.2153 36.5217 27.365 36.2912 27.4488 36.1802C27.5326 36.069 27.6638 35.7722 27.7405 35.5204C27.8172 35.2687 27.9249 34.9923 27.9799 34.9063C28.5189 34.0623 28.5366 22.8433 28.0006 21.6657C27.9193 21.4872 27.8002 21.2019 27.7361 21.0321C27.3975 20.1373 26.2609 19.0115 25.1859 18.5065C24.7295 18.292 23.3177 18.0595 22.7336 18.1027C21.429 18.1988 20.9029 18.4269 19.8755 19.3411C19.5976 19.5884 19.356 19.7909 19.3387 19.7909C18.9657 19.7909 18.9748 12.6626 19.3488 12.1384C19.4134 12.0476 19.5377 11.8452 19.6247 11.6889C19.8261 11.3272 20.4576 10.8895 20.8006 10.874C22.4616 10.7991 23.0526 11.6605 23.0526 14.1577V15.2293L23.2311 15.3698C23.4851 15.5695 27.9121 15.5532 28.1135 15.352C28.386 15.0796 28.2822 10.9569 27.9792 10.0197C27.8926 9.75166 27.7693 9.31648 27.7055 9.05217C27.6416 8.78811 27.5144 8.46166 27.4227 8.32654C27.331 8.19168 27.2027 7.96237 27.1377 7.8174C26.788 7.03851 25.8067 6.14572 24.7048 5.60402C23.5855 5.0537 21.1147 4.66931 19.9191 4.85916ZM30.1085 5.42625C29.8444 5.67232 29.8459 5.56605 29.8634 22.3948L29.8804 38.7356L30.0362 38.8618C30.265 39.047 35.462 39.0554 35.7019 38.871L35.8499 38.757L35.8669 32.9587L35.8837 27.1606L36.0698 27.0215C36.2495 26.8871 36.3442 26.8812 38.9065 26.8442L41.557 26.806L42.3157 26.592C43.3071 26.3121 43.4385 26.2621 43.635 26.0907C43.7258 26.0116 43.9112 25.8804 44.0473 25.7991C44.1834 25.7177 44.2948 25.624 44.2948 25.591C44.2948 25.5577 44.4011 25.4127 44.5313 25.2687C44.816 24.9534 45.3146 23.9831 45.409 23.5595C45.4468 23.3916 45.575 22.7644 45.6943 22.1657L45.911 21.0772L45.909 15.7995L45.9073 10.5222L45.6349 9.34262C45.4566 8.57039 45.3131 8.09626 45.2197 7.96977C45.141 7.8635 45.0108 7.6347 44.9305 7.46112C44.7505 7.07229 44.2388 6.54342 43.7154 6.20514C43.134 5.82963 43.0891 5.81039 42.4624 5.66936C42.1458 5.59811 41.6791 5.49332 41.4251 5.43636C40.6775 5.2687 30.2875 5.25958 30.1085 5.42625ZM47.7684 5.34957C47.632 5.37152 47.4964 5.41639 47.4668 5.44918C47.2683 5.66887 47.2634 6.07446 47.2634 22.3356V38.7144L47.4372 38.8512C47.6061 38.9841 47.6811 38.9878 50.1635 38.9878H52.7158L52.8593 38.8352L53.0026 38.6826V31.8496C53.0026 23.813 52.8793 24.7307 53.9657 24.6876C55.4869 24.6272 56.094 24.8532 56.5585 25.6536C56.9212 26.2789 56.9187 26.2286 56.902 32.7903L56.8869 38.6981L57.0649 38.8759L57.2427 39.0539H59.5742C62.1068 39.0539 62.3929 39.0186 62.4737 38.6971C62.4935 38.6182 62.4989 35.764 62.4856 32.3551L62.4614 26.1568L62.2866 25.1343C61.9559 23.2015 61.4244 22.4076 60.0407 21.7801C59.7981 21.6702 59.5996 21.5673 59.5996 21.5516C59.5996 21.411 59.9048 20.89 60.0409 20.7978C60.2727 20.641 61.0508 19.8636 61.0508 19.7889C61.0508 19.7561 61.1344 19.6318 61.2365 19.5127C61.3388 19.3934 61.4766 19.1476 61.543 18.9661C61.6093 18.7847 61.7311 18.5176 61.8134 18.3724C62.4681 17.2183 62.5107 10.5278 61.8726 9.06499C61.8107 8.92297 61.6803 8.59899 61.5827 8.34504C61.3349 7.70003 60.2493 6.3331 59.9847 6.3331C59.9531 6.3331 59.7638 6.22437 59.5641 6.09172C59.1198 5.79683 57.7334 5.41787 56.9278 5.37127C56.1028 5.32368 48.0455 5.30445 47.7684 5.34957ZM38.0277 11.1504C39.8885 11.3131 40.1176 11.6073 40.2248 13.972C40.408 18.0124 40.0979 20.1997 39.2862 20.5929C38.6821 20.8856 36.3134 20.8531 36.0082 20.5481L35.8506 20.3905V16.0631C35.8506 10.5429 35.6728 10.9443 38.0277 11.1504ZM55.8232 11.3733C56.7493 11.6351 56.9592 12.2713 56.9604 14.8195C56.9616 18.1332 56.5935 18.7977 54.7179 18.8673C52.8569 18.936 53.0428 19.3379 53.0026 15.1607C52.9659 11.3279 52.9555 11.4258 53.4124 11.2848C53.7159 11.1911 55.3967 11.253 55.8232 11.3733ZM22.0242 22.9789C22.8835 23.456 23.0714 24.5367 23.0396 28.8211L23.0174 31.8302L22.7642 32.4239C22.4325 33.2015 22.4562 33.1766 21.6167 33.6357C20.7609 34.1037 19.3779 33.2087 19.1516 32.0402C19.0507 31.5195 19.0478 25.3927 19.1481 24.6772C19.2206 24.1604 19.5872 23.3349 19.8501 23.0963C20.2872 22.6993 21.4113 22.6386 22.0242 22.9789ZM3.28243 41.4041C3.23238 41.5348 3.30635 41.6891 3.44171 41.736C3.50606 41.7582 3.69394 41.9133 3.85938 42.0807C4.15797 42.383 4.85746 43.0036 4.99701 43.0901C5.03696 43.115 5.17503 43.2274 5.30374 43.3399C5.90732 43.868 6.24017 44.1335 6.29836 44.1335C6.33337 44.1335 6.47342 44.2324 6.60952 44.353C6.74562 44.4738 6.99933 44.6743 7.17316 44.7985C7.34723 44.9225 7.65888 45.1496 7.86599 45.3032C8.0731 45.4566 8.31671 45.6319 8.40744 45.6925C8.49817 45.7532 8.7329 45.9095 8.92891 46.0402C9.12518 46.1706 9.45162 46.3883 9.65454 46.5239C9.85771 46.6593 10.1092 46.8228 10.2137 46.8866C10.3183 46.9507 10.5409 47.0979 10.7083 47.2138C10.876 47.3297 11.1817 47.5144 11.3876 47.6246C11.5937 47.7348 11.7814 47.8559 11.8048 47.8938C11.8285 47.9318 12.0511 48.0654 12.2996 48.1907C12.5482 48.3157 12.7723 48.4518 12.7979 48.4932C12.8233 48.5344 13.0041 48.6389 13.1996 48.7252C13.3951 48.8118 13.7065 48.9866 13.8912 49.1138C14.0761 49.241 14.2655 49.3451 14.3116 49.3451C14.3579 49.3451 14.5401 49.4435 14.7164 49.5638C14.893 49.6839 15.1691 49.8345 15.3304 49.8981C15.4916 49.9617 15.7019 50.0697 15.7976 50.1378C15.8935 50.2061 16.1921 50.3656 16.4611 50.4921C16.7303 50.6188 17.0247 50.7658 17.1155 50.8188C17.206 50.8718 17.5921 51.0634 17.973 51.2444C18.3539 51.4253 18.9477 51.7081 19.2923 51.8723C19.637 52.0368 19.9933 52.1916 20.0841 52.2163C20.1748 52.2409 20.4098 52.3502 20.6065 52.4592C20.803 52.5681 21.1147 52.7015 21.2991 52.7555C21.4835 52.8095 21.7826 52.9375 21.9641 53.0398C22.1455 53.1421 22.472 53.2763 22.6897 53.3376C22.9074 53.3993 23.2341 53.5332 23.4153 53.6355C23.5968 53.7376 23.8937 53.8569 24.0751 53.9005C24.2566 53.9439 24.5719 54.0625 24.7759 54.1639C24.9798 54.2652 25.3656 54.4131 25.6334 54.4928C25.9012 54.5724 26.2567 54.7066 26.4236 54.7911C26.5903 54.8754 26.9734 55.0074 27.2747 55.0843C27.5758 55.1612 27.9589 55.2924 28.1256 55.3757C28.2925 55.4593 28.6518 55.5806 28.9237 55.6457C29.1959 55.7105 29.5705 55.8326 29.7561 55.9167C29.9415 56.0007 30.3671 56.1307 30.7014 56.2051C31.0355 56.2796 31.4266 56.4004 31.5701 56.4737C31.7138 56.5469 32.1505 56.6788 32.5408 56.7668C32.9311 56.8551 33.4422 56.9991 33.6764 57.0873C33.9107 57.1754 34.3695 57.2964 34.6962 57.3563C35.0227 57.4163 35.4827 57.5378 35.7187 57.6261C35.9547 57.7146 36.489 57.8482 36.9061 57.9229C37.3233 57.9976 37.8874 58.131 38.1597 58.2193C38.4316 58.3076 39.0278 58.4392 39.4844 58.5117C39.9411 58.5842 40.5052 58.704 40.7379 58.778C40.9707 58.852 41.6657 58.9861 42.2826 59.0761C42.8995 59.1661 43.6072 59.2978 43.8554 59.369C44.1037 59.4403 44.8311 59.5603 45.4719 59.6358C46.1125 59.7115 46.9929 59.8451 47.4284 59.9329C47.8638 60.0207 48.7544 60.1385 49.4073 60.1945C50.9835 60.3296 51.7972 60.4189 52.475 60.531C55.3706 61.0101 67.1978 60.9904 70.2867 60.5012C70.7402 60.4295 71.4379 60.3382 71.8369 60.2988C73.6074 60.1232 73.9193 60.0813 74.5416 59.9344C74.9046 59.8486 75.6507 59.7164 76.2 59.6405C76.7491 59.5645 77.3726 59.4422 77.5854 59.3688C77.798 59.2953 78.3729 59.1644 78.8626 59.0781C79.3525 58.9915 79.8927 58.8608 80.0634 58.7876C80.234 58.7141 80.6793 58.5896 81.0528 58.5105C81.4266 58.4313 81.8955 58.2989 82.0953 58.2161C82.2947 58.1333 82.7176 58.0038 83.0347 57.9286C83.352 57.8534 83.7526 57.7205 83.9255 57.6332C84.0981 57.5459 84.4322 57.4254 84.6679 57.3652C84.9038 57.3051 85.2749 57.1704 85.4926 57.0659C85.7103 56.9613 86.0486 56.8294 86.2441 56.7725C86.4399 56.7158 86.7217 56.5984 86.8709 56.5121C87.0198 56.4258 87.3349 56.2873 87.5706 56.2044C87.8066 56.1216 88.1034 55.9857 88.2304 55.9026C88.3574 55.8195 88.6096 55.7017 88.7911 55.6408C88.9726 55.5799 89.2396 55.4462 89.3848 55.3434C89.53 55.2408 89.8212 55.0932 90.0323 55.0152C90.2833 54.9228 90.4399 54.8214 90.485 54.7223C90.5592 54.5596 90.6946 54.4772 91.0836 54.3582C91.3534 54.2756 91.3837 54.2208 91.2308 54.0938C91.0905 53.9775 90.4897 54.0578 90.2665 54.223C90.0956 54.3493 89.9376 54.3959 89.1489 54.5534C88.9467 54.5939 88.6686 54.6873 88.531 54.7608C88.3937 54.8345 87.9358 54.9696 87.5137 55.0611C87.0913 55.1526 86.5464 55.2983 86.3026 55.3846C86.0587 55.4711 85.5064 55.6011 85.0752 55.6736C84.644 55.7458 84.0419 55.8772 83.7374 55.9655C83.4328 56.0535 82.7829 56.1758 82.293 56.2369C81.8033 56.2981 81.1204 56.4184 80.7757 56.5042C80.2224 56.6421 79.2667 56.7676 77.7743 56.8982C77.5201 56.9204 76.9858 56.9954 76.5868 57.0647C73.9644 57.5203 65.9379 57.7131 59.9295 57.4646C56.8455 57.3371 54.3902 57.1793 54.2625 57.1004C54.1841 57.0521 53.2235 56.9463 51.521 56.7991C50.6516 56.7242 49.583 56.592 49.1461 56.506C48.7092 56.4197 48.0105 56.3159 47.5933 56.2749C46.4954 56.1674 45.9172 56.0819 45.2959 55.9344C44.9936 55.8627 44.2813 55.7443 43.7124 55.6713C42.6293 55.5325 42.2577 55.4642 41.9495 55.3469C41.8475 55.3082 41.287 55.2034 40.7039 55.1141C40.1208 55.0249 39.3767 54.8782 39.0502 54.7882C38.7235 54.6984 38.1002 54.5663 37.6648 54.4945C37.2294 54.423 36.6951 54.3029 36.4774 54.2275C36.2597 54.152 35.7402 54.0297 35.323 53.9555C34.9055 53.8813 34.3508 53.7477 34.0902 53.6584C33.8293 53.5692 33.2972 53.4355 32.9077 53.3618C32.5181 53.2878 32.0191 53.1582 31.7986 53.0733C31.578 52.9885 31.0713 52.8445 30.6721 52.7531C30.2729 52.6616 29.7238 52.5124 29.4516 52.4214C29.1794 52.3304 28.7341 52.2062 28.4622 52.1453C28.19 52.0841 27.8633 51.9821 27.7363 51.9182C27.6093 51.8543 27.1939 51.7256 26.8129 51.6319C26.4318 51.5385 26.0013 51.4041 25.856 51.3334C25.7108 51.2626 25.3326 51.1433 25.0155 51.0681C24.6984 50.9926 24.2978 50.8605 24.1252 50.7742C23.9523 50.6879 23.5887 50.5643 23.3165 50.4995C23.0443 50.4349 22.6826 50.3121 22.5122 50.227C22.3421 50.142 21.971 50.0098 21.6877 49.9334C21.4044 49.8567 21.0454 49.7243 20.8898 49.639C20.7345 49.5537 20.3819 49.422 20.1065 49.3463C19.8311 49.2709 19.4832 49.1387 19.3335 49.0529C19.1839 48.9671 18.8833 48.8473 18.6656 48.7866C18.4479 48.726 18.1066 48.5931 17.9069 48.4915C17.7075 48.3897 17.366 48.2558 17.1483 48.1939C16.9305 48.132 16.6315 48.011 16.4833 47.9254C16.3353 47.8396 16.0237 47.7037 15.7907 47.6239C15.5577 47.5437 15.2187 47.3968 15.0372 47.2972C14.856 47.1978 14.5887 47.0787 14.4435 47.0328C14.2985 46.9867 13.9632 46.8351 13.6984 46.6958C13.4336 46.5565 13.1648 46.4423 13.101 46.4423C13.0374 46.4423 12.8384 46.3491 12.6589 46.2355C12.4794 46.1216 12.1756 45.9744 11.9836 45.9083C11.7917 45.8422 11.5494 45.7273 11.4451 45.6528C11.3408 45.5786 11.0422 45.4312 10.7818 45.3252C10.5214 45.2192 10.2564 45.0855 10.1928 45.0278C10.1294 44.9704 9.89642 44.8525 9.67525 44.766C9.45434 44.6792 9.17498 44.5357 9.05466 44.4469C8.93459 44.3579 8.7043 44.2341 8.54305 44.1718C8.38204 44.1094 8.17419 44.0043 8.08124 43.9383C7.98853 43.8724 7.72225 43.7262 7.48949 43.6135C7.25674 43.5009 7.0193 43.3672 6.96161 43.3167C6.90416 43.2661 6.69384 43.1431 6.49438 43.043C6.29466 42.9431 6.04243 42.7942 5.93345 42.7121C5.82472 42.6303 5.6292 42.5193 5.49926 42.4658C5.36932 42.4121 5.12202 42.2607 4.94992 42.1292C4.77782 41.9978 4.55764 41.8726 4.46074 41.8506C4.3636 41.8287 4.2238 41.7394 4.14983 41.6526C3.97749 41.45 3.33544 41.266 3.28243 41.4041ZM66.7799 42.5055C66.5156 42.5652 66.3277 42.6611 66.1364 42.8339C65.988 42.9681 65.8353 43.078 65.7971 43.078C65.6317 43.078 65.5064 43.6266 65.5274 44.2618C65.5397 44.6434 66.0762 45.2041 66.5373 45.3168C67.6638 45.5924 68.5056 45.9702 68.5056 46.2002C68.5056 46.8864 67.3258 46.8894 66.682 46.2051C66.0819 45.5673 65.2428 45.9115 65.4697 46.7025C65.8257 47.9431 68.7867 48.2109 69.66 47.0817C70.4818 46.019 70.0288 45.0429 68.5253 44.6348C67.5179 44.3616 66.8489 44.0043 67.0013 43.8209C67.3492 43.4018 68.1671 43.4602 68.5002 43.9282C68.7314 44.2531 69.8232 44.1464 69.7322 43.8076C69.7169 43.7509 69.6859 43.5948 69.6632 43.4604C69.5357 42.7035 68.0628 42.2158 66.7799 42.5055ZM47.6826 42.5314C47.2622 42.5844 47.2674 42.5538 47.2531 45.0606C47.2442 46.6581 47.2627 47.3746 47.3154 47.4727C47.4607 47.7424 48.0872 47.7713 48.3838 47.5215L48.5909 47.3472L48.5704 46.307C48.5482 45.1856 48.562 45.1208 48.7911 45.2813C48.8739 45.3392 48.9901 45.3868 49.049 45.3868C49.2046 45.3868 49.3449 45.569 49.5061 45.9805C49.5843 46.1802 49.7021 46.4029 49.768 46.4754C49.8338 46.5479 49.9815 46.7949 50.0961 47.0242C50.426 47.6843 51.2579 47.9343 51.7488 47.5213L51.9562 47.3465L51.9352 45.0744L51.9143 42.8026L51.721 42.6364C51.5499 42.4892 51.4899 42.4752 51.1933 42.5141C50.6815 42.5807 50.6731 42.5997 50.6435 43.7521C50.6107 45.0152 50.4522 45.4174 50.1827 44.9215C50.1191 44.8047 49.9662 44.5737 49.8432 44.4085C49.7201 44.243 49.5606 43.9745 49.4886 43.8118C49.0912 42.9136 48.5142 42.4153 47.9634 42.4949C47.923 42.5006 47.7967 42.5171 47.6826 42.5314ZM53.387 42.5319C52.9644 42.5765 52.972 42.5326 52.9481 45.0648L52.9264 47.3615L53.0978 47.5331L53.2694 47.7047L55.2073 47.6838C57.3736 47.6603 57.4303 47.648 57.416 47.2074C57.3963 46.5967 57.2237 46.5235 55.7907 46.5168C54.5207 46.5109 54.2098 46.3597 54.5241 45.9004C54.781 45.5249 54.8015 45.5187 55.8146 45.5187H56.754L56.8904 45.3271C57.0681 45.0774 57.0625 44.9775 56.8561 44.7322L56.6852 44.5293H55.7675C54.7672 44.5293 54.6701 44.4955 54.5175 44.0936C54.3624 43.686 54.5752 43.6062 55.8195 43.6042C57.0928 43.6025 57.3566 43.5083 57.3566 43.0563C57.3566 42.5516 57.0829 42.4816 55.1674 42.4954C54.3214 42.5013 53.5204 42.5178 53.387 42.5319ZM58.1025 42.5955C57.9304 42.683 57.8971 42.7338 57.9207 42.8739C58.0904 43.8756 58.24 44.5288 58.3724 44.8434C58.4597 45.0517 58.5971 45.5338 58.6774 45.9147C58.7578 46.2956 58.8944 46.7641 58.9807 46.9557C59.0672 47.1473 59.1378 47.3304 59.1378 47.3632C59.1378 47.6734 59.9874 47.8036 60.4554 47.5649C60.7858 47.3963 60.7727 47.4249 60.8851 46.6285C61.0725 45.3003 61.1933 44.87 61.3248 45.0646C61.6477 45.5439 61.9347 46.3122 62.0363 46.9702C62.1317 47.5876 62.3001 47.7232 62.917 47.6791C63.5749 47.632 63.693 47.5242 63.8397 46.8376C63.904 46.536 64.0179 46.1534 64.0929 45.9867C64.1678 45.82 64.2993 45.3503 64.3848 44.9428C64.4706 44.5345 64.6309 44.0167 64.7418 43.7893C65.1585 42.9353 64.979 42.4323 64.2818 42.4993C63.7174 42.5536 63.5068 42.9084 63.331 44.1005C63.1584 45.2702 63.0433 45.5863 62.8741 45.355C62.7745 45.2189 62.308 43.7605 62.1717 43.1591C62.0664 42.6954 61.9409 42.5583 61.5767 42.5099C60.8501 42.4135 60.5873 42.7521 60.4253 43.9928C60.3208 44.7946 60.3065 44.8651 60.1782 45.2076C59.9909 45.7088 59.4903 44.6543 59.2694 43.2923C59.1526 42.5718 58.6912 42.2964 58.1025 42.5955ZM73.154 42.544C72.4777 42.8334 72.7965 43.6717 73.583 43.6717C74.3187 43.6717 74.3829 43.8483 74.3715 45.8486C74.3671 46.6287 74.3663 47.3058 74.37 47.3531C74.3821 47.5077 74.96 47.7141 75.2798 47.6781C75.8255 47.6167 75.8156 47.652 75.8398 45.6847C75.8654 43.5955 75.8188 43.7104 76.6638 43.651C77.3793 43.6005 77.5235 43.4959 77.4883 43.0529C77.4451 42.5114 77.4777 42.5193 75.2441 42.5018C74.1683 42.4934 73.228 42.5124 73.154 42.544ZM79.2586 42.5316C78.96 42.5689 78.8387 42.684 78.6959 43.0647C78.6321 43.2353 78.5135 43.4935 78.4321 43.6387C78.351 43.7839 78.2188 44.1249 78.1382 44.3964C78.0576 44.6681 77.9387 44.9649 77.8739 45.0562C77.8093 45.1474 77.6905 45.4428 77.6103 45.7128C77.5299 45.9827 77.3795 46.3538 77.276 46.5375C76.611 47.7173 77.634 48.2306 78.5583 47.1813C78.8522 46.8477 79.0542 46.7722 79.6541 46.7722H80.1884L80.5257 47.1095C80.9968 47.5807 81.2079 47.6954 81.6053 47.6956C82.2765 47.6961 82.3795 47.2755 81.8965 46.5084C81.7937 46.3452 81.6606 46.021 81.6007 45.788C81.541 45.555 81.4088 45.1987 81.3073 44.9963C81.2057 44.7938 81.0718 44.4501 81.0094 44.2324C80.9473 44.0147 80.8134 43.6883 80.7121 43.5068C80.6105 43.3253 80.4929 43.0679 80.4505 42.9348C80.3341 42.5699 79.9615 42.4439 79.2586 42.5316ZM83.172 42.5316C82.7874 42.5797 82.7886 42.5716 82.7797 44.8974C82.7753 46.0683 82.7536 47.0982 82.7316 47.186C82.7018 47.3043 82.7351 47.3862 82.8603 47.504L83.0292 47.6628H84.7813H86.5336L86.6571 47.4974C86.8248 47.2735 86.7622 46.7377 86.5553 46.6253C86.4789 46.5836 85.9961 46.5328 85.4828 46.5126C84.1809 46.4608 84.2879 46.63 84.2578 44.5729C84.2312 42.7237 84.2329 42.7336 83.87 42.5883C83.6111 42.4848 83.5717 42.4816 83.172 42.5316ZM87.8019 42.5723C87.4508 42.6801 87.4557 42.6438 87.4466 45.1767C87.4377 47.543 87.4318 47.5077 87.8741 47.6317C88.6215 47.8408 88.9509 47.5738 88.9538 46.7567C88.9583 45.5818 89.6711 45.5273 90.2505 46.6576C90.3107 46.7752 90.431 46.9604 90.5178 47.0691C90.6048 47.1778 90.7463 47.3561 90.8326 47.4648C91.0469 47.7351 92.076 47.8083 92.3142 47.5701C92.4952 47.3891 92.4885 47.2641 92.2878 47.0634C92.1971 46.9729 92.0183 46.7441 91.8906 46.555C91.6305 46.1709 91.1911 45.5752 90.9229 45.2426C90.8097 45.102 90.7303 44.9045 90.7027 44.6937L90.6593 44.3643L91.1766 43.8604C91.6236 43.4249 92.1226 42.8181 92.1226 42.7099C92.1226 42.6253 91.6362 42.4843 91.3494 42.4858C90.8344 42.488 90.5592 42.6623 89.9142 43.3948C89.1661 44.2445 89.0219 44.2193 88.9235 43.2232C88.8601 42.5812 88.4839 42.363 87.8019 42.5723ZM79.8165 44.7495C80.181 45.3718 79.9085 45.9966 79.3979 45.7091C79.1829 45.5882 79.1853 45.0323 79.4021 44.6777C79.5724 44.3991 79.6156 44.4067 79.8165 44.7495Z" fill="#979797"/>
<path fill-rule="evenodd" clip-rule="evenodd" d="M67.5819 18.269C67.0582 18.3141 66.5264 18.4838 66.5264 18.6056C66.5264 18.6347 66.43 18.6795 66.3119 18.7049C65.8525 18.8038 65.0391 19.4947 64.7497 20.0314C64.6742 20.1712 64.5544 20.3596 64.4829 20.4503C64.4028 20.5522 64.3036 20.8803 64.224 21.3079C64.153 21.6891 64.0457 22.1935 63.9853 22.4295C63.8374 23.0094 63.8694 25.4326 64.0297 25.796C64.0864 25.924 64.1542 26.2018 64.1806 26.4132C64.2598 27.0458 64.4003 27.428 64.6116 27.5843C64.7169 27.662 64.8367 27.8077 64.8784 27.9078C64.9198 28.0079 65.0253 28.1571 65.1126 28.2392L65.2716 28.3883L65.0248 28.4993C64.688 28.6504 64.3061 29.0915 64.2151 29.435C64.1737 29.5913 64.0805 29.7829 64.008 29.8611C63.6278 30.2718 63.635 36.0729 64.0164 36.6087C64.084 36.7034 64.1885 36.9509 64.2489 37.1588C64.3209 37.4065 64.4595 37.6546 64.651 37.879C64.8116 38.0673 64.943 38.2444 64.943 38.2727C64.943 38.3008 65.099 38.4293 65.2894 38.558C65.48 38.6867 65.7322 38.8627 65.8501 38.9493C65.9682 39.0358 66.2204 39.1433 66.411 39.1882C66.6013 39.2333 66.8314 39.3208 66.9221 39.3827C67.4295 39.7294 69.3941 39.7422 70.048 39.4032C70.1612 39.3445 70.4615 39.2432 70.7154 39.1781C71.0589 39.0898 71.2239 39.0077 71.3595 38.8568C71.4596 38.7454 71.6154 38.626 71.7056 38.5918C71.7959 38.5572 71.9219 38.4438 71.9852 38.3393C72.0488 38.2347 72.1936 38.0713 72.3068 37.9761C72.4199 37.8809 72.5296 37.7175 72.5506 37.6129C72.5716 37.5084 72.6675 37.3291 72.7636 37.2147C73.1096 36.8037 73.1234 36.6545 73.1234 33.3001C73.1234 30.0203 73.1044 29.7844 72.8149 29.4495C72.7237 29.3438 72.5947 29.1517 72.5284 29.0227C72.4623 28.8938 72.2779 28.7059 72.1191 28.6056L71.8299 28.4229L71.9312 28.1115C71.9968 27.91 72.1006 27.7547 72.2259 27.6711C72.4308 27.5345 72.4461 27.5126 72.6606 27.0473C72.736 26.8841 72.8452 26.6639 72.9034 26.5581C73.2738 25.8838 73.1995 21.7112 72.8078 21.1811C72.7353 21.0833 72.6401 20.8303 72.5962 20.6187C72.5168 20.2366 72.4278 20.1074 71.8518 19.5418C71.3106 19.0099 71.1768 18.9076 70.8668 18.79C70.6807 18.7192 70.4551 18.6038 70.3658 18.5336C70.0507 18.2858 68.7831 18.1652 67.5819 18.269ZM77.5432 18.2754C77.1623 18.3018 76.8156 18.3267 76.7732 18.3311C76.7305 18.3358 76.6068 18.4142 76.4978 18.506C76.3888 18.5974 76.1657 18.7128 76.0017 18.7621C75.571 18.8918 74.7573 19.6431 74.5704 20.0837C74.4928 20.2671 74.3562 20.495 74.2672 20.5896C74.0053 20.8687 73.8884 21.9055 73.8889 23.9468C73.8892 26.3525 73.9959 27.0318 74.4595 27.5838C75.2337 28.506 75.1913 28.3871 74.8054 28.5577C74.6422 28.63 74.5085 28.7202 74.5085 28.7582C74.5085 28.7964 74.4208 28.9059 74.313 29.0018C74.2011 29.1016 74.0716 29.3199 74.0095 29.5134C73.9501 29.6991 73.8441 29.974 73.7738 30.1246C73.4399 30.8384 73.4143 35.0741 73.7378 36.0522C73.8337 36.3424 73.9577 36.7487 74.0132 36.9548C74.0687 37.161 74.1838 37.4135 74.2691 37.5155C74.3544 37.6178 74.472 37.7949 74.5307 37.9093C74.5892 38.0234 74.8086 38.2611 75.0182 38.4369C75.2278 38.613 75.4087 38.7779 75.4203 38.8038C75.4657 38.9042 75.8765 39.1056 76.1908 39.1818C76.3723 39.2257 76.5698 39.306 76.6299 39.3603C77.0023 39.6964 79.3014 39.7373 79.9509 39.4195C80.1432 39.3255 80.4576 39.202 80.6494 39.1448C80.8412 39.0878 81.0744 38.9621 81.1674 38.865C81.2603 38.7681 81.4194 38.6522 81.521 38.6073C81.6223 38.5627 81.7559 38.4369 81.8178 38.3279C81.8797 38.219 81.985 38.1122 82.0521 38.0905C82.1191 38.0688 82.2451 37.8908 82.3317 37.6948C82.4184 37.4988 82.5185 37.3385 82.5543 37.3385C82.8124 37.3385 82.9222 36.4728 82.99 33.9017C83.0632 31.1286 82.9236 29.6655 82.5501 29.2834C82.4406 29.1712 82.3235 29.0077 82.2902 28.9202C82.257 28.8326 82.0992 28.682 81.9394 28.5856L81.6489 28.41L81.7471 28.1228C81.8122 27.9317 81.9068 27.8033 82.0299 27.7396C82.1499 27.6775 82.2555 27.538 82.3302 27.3424C82.3935 27.1768 82.4976 27.013 82.5617 26.9788C82.8235 26.8385 82.8539 26.5325 82.8539 24.0126C82.8539 21.4467 82.8346 21.2166 82.5977 20.9306C82.5141 20.8298 82.396 20.5988 82.3354 20.4173C82.2745 20.2361 82.1371 19.9984 82.0301 19.8897C81.1341 18.9798 81.0343 18.897 80.6767 18.7693C80.4953 18.7047 80.2877 18.5989 80.2149 18.5343C79.9405 18.2905 78.8534 18.1852 77.5432 18.2754ZM86.8215 18.3464C86.6817 18.3792 86.4887 18.4611 86.3928 18.5284C86.2968 18.5957 86.0646 18.701 85.877 18.7624C85.6893 18.824 85.4963 18.9221 85.4482 18.9806C85.4001 19.0393 85.2527 19.1655 85.1205 19.2614C84.7872 19.5038 84.347 20.0265 84.297 20.2395C84.2741 20.3374 84.1725 20.5065 84.0714 20.6153C83.8638 20.8389 83.775 21.1331 83.7136 21.8027C83.6902 22.0567 83.6434 22.4277 83.6091 22.6275C83.5748 22.8269 83.5363 23.7027 83.5233 24.5736C83.4974 26.3029 83.4893 26.2571 83.901 26.7009L84.1 26.9154H85.3611H86.6223L86.789 26.7339C87.2306 26.2539 87.2407 26.2068 87.2407 24.6638C87.2407 22.8269 87.3294 22.5153 87.9135 22.2995C88.1771 22.2024 88.2028 22.2049 88.5095 22.3565C88.9651 22.5821 88.9607 22.5619 88.9565 24.4577C88.9523 26.3436 88.917 26.6459 88.6712 26.9033C88.5785 27.0007 88.4328 27.2288 88.3475 27.4102C88.2624 27.5915 88.0824 27.8484 87.9476 27.9808C87.8127 28.1132 87.7025 28.2683 87.7025 28.3255C87.7025 28.3824 87.6177 28.4732 87.5139 28.5269C87.4101 28.5804 87.2883 28.7136 87.2431 28.8228C87.1978 28.932 87.0602 29.0982 86.9369 29.1921C86.8136 29.2861 86.7125 29.3985 86.7121 29.4421C86.7116 29.4855 86.5481 29.6966 86.3491 29.9111C86.1501 30.1256 85.9874 30.3241 85.9874 30.3524C85.9874 30.3806 85.8688 30.5408 85.7238 30.7082C85.5789 30.8757 85.443 31.0815 85.4218 31.1656C85.4008 31.2499 85.3106 31.352 85.2213 31.3927C85.1262 31.4361 85.0061 31.5909 84.9299 31.7684C84.8587 31.9346 84.7144 32.1565 84.6094 32.2616C84.493 32.3779 84.387 32.5823 84.3389 32.7835C84.2953 32.9655 84.1752 33.2202 84.0724 33.3496C83.8653 33.6103 83.8542 33.6492 83.7112 34.6221C83.6559 34.9967 83.5679 35.386 83.5156 35.4873C83.3951 35.7206 83.2755 37.1518 83.2999 38.0723C83.3322 39.292 82.95 39.204 88.1542 39.1899C90.7312 39.183 92.4552 39.1534 92.5272 39.115C92.9355 38.8965 92.9271 35.4945 92.5173 35.0844L92.3304 34.8975H90.2546C87.7469 34.8975 87.8423 34.9266 88.0252 34.2202C88.1059 33.9091 88.204 33.7084 88.3487 33.5592C88.4629 33.4414 88.5891 33.251 88.6291 33.1361C88.6692 33.0212 88.7735 32.8804 88.8611 32.823C88.9486 32.7658 89.0795 32.6023 89.152 32.4603C89.2248 32.318 89.3377 32.1624 89.4033 32.1149C89.4688 32.067 89.6096 31.9092 89.7161 31.764C89.8224 31.619 89.9953 31.4112 90.1003 31.3024C90.2053 31.1935 90.3306 31.0122 90.3789 30.8996C90.4275 30.7871 90.5424 30.6454 90.6346 30.585C90.7268 30.5245 90.8447 30.3741 90.8962 30.2506C90.9477 30.1271 91.0683 29.9747 91.1642 29.9121C91.2601 29.8492 91.3945 29.6882 91.4628 29.5541C91.5311 29.4202 91.6605 29.2624 91.7503 29.2035C91.8469 29.1401 91.9714 28.9409 92.0555 28.715C92.1337 28.5055 92.2678 28.2594 92.3534 28.1687C92.5464 27.9645 92.6278 27.6248 92.7165 26.6516C92.7545 26.2341 92.8176 25.7262 92.8566 25.5223C92.9574 24.9967 92.8904 23.1157 92.7294 21.9568C92.5859 20.925 92.5573 20.834 92.2969 20.5906C92.2047 20.5043 92.1093 20.3423 92.0846 20.2306C92.0343 20.0016 91.337 19.2629 91.1711 19.2629C91.1139 19.2629 91.0671 19.2387 91.0671 19.2094C91.0671 19.0802 90.7828 18.8709 90.4635 18.7648C90.2731 18.7017 90.0611 18.5977 89.9928 18.5341C89.7304 18.2897 87.5997 18.1635 86.8215 18.3464ZM78.8707 22.4295C79.172 22.4295 79.1925 22.5545 79.1925 24.3827C79.1925 25.4804 79.1666 26.1732 79.1217 26.2692C79.0033 26.5219 78.6056 26.7835 78.3408 26.7825C77.9175 26.781 77.8354 26.728 77.6934 26.3661C77.308 25.3825 77.3524 23.094 77.7678 22.5259C77.9029 22.341 78.3899 22.2357 78.612 22.3432C78.7099 22.3908 78.8263 22.4295 78.8707 22.4295ZM69.0186 22.4613C69.4254 22.6657 69.4289 22.6854 69.4289 24.6882V26.1368L69.0987 26.4602C68.7079 26.8429 67.9776 26.943 67.9776 26.6139C67.9776 26.5645 67.8812 26.4144 67.7634 26.28L67.5489 26.0362L67.5289 24.6431L67.5089 23.2503L67.6818 22.9408C68.044 22.2929 68.417 22.1592 69.0186 22.4613ZM68.8874 30.3362C69.0221 30.4762 69.17 30.6027 69.2166 30.6173C69.3808 30.669 69.442 31.514 69.4111 33.3048C69.3781 35.2127 69.3653 35.3071 69.1234 35.4173C69.0342 35.458 68.9106 35.5803 68.8487 35.6888C68.6936 35.9615 68.3115 35.9721 68.0928 35.7097C68.0112 35.6121 67.879 35.4688 67.7989 35.3914C67.7187 35.3137 67.6223 35.169 67.5846 35.0696C67.4862 34.8108 67.4922 31.1079 67.5913 30.9186C67.8046 30.5117 68.1887 30.202 68.6236 30.0869C68.634 30.0842 68.7528 30.1964 68.8874 30.3362ZM78.5566 30.1808C78.5775 30.2353 78.6998 30.3303 78.8285 30.3914C79.1833 30.5608 79.2038 30.7211 79.1784 33.1388C79.1567 35.2272 79.132 35.4913 78.9597 35.4913C78.9119 35.4913 78.7837 35.5805 78.6749 35.6892C78.4806 35.8835 78.2244 35.942 77.9791 35.8478C77.8664 35.8046 77.5994 35.2802 77.4774 34.862C77.2108 33.9503 77.3898 31.0408 77.7488 30.4493C77.9338 30.1448 78.474 29.9653 78.5566 30.1808Z" fill="#979797"/>
</g>
</svg>
