<svg width="124" height="38" viewBox="0 0 124 38" fill="none" xmlns="http://www.w3.org/2000/svg">
<g opacity="0.5">
<path d="M18.5459 13.675H7.60728L0 0.606445H26.1725L18.5459 13.675Z" fill="#979797"/>
<path d="M27.3604 0.672363L35.0483 13.7369L21.5464 37.6778H5.79413L27.3604 0.672363Z" fill="#979797"/>
<path d="M110.512 29.1303C110.038 29.0971 109.263 28.9847 108.898 28.8964C107.273 28.5028 106.459 27.7767 106.093 26.3949C106.001 26.0469 105.989 25.9151 105.972 25.0428C105.958 24.355 105.966 24.0513 105.999 23.9897C106.045 23.9044 106.059 23.9032 106.935 23.9138L107.824 23.9246L107.828 24.6663C107.831 25.2333 107.848 25.4646 107.9 25.6485C108.124 26.4406 108.62 26.9189 109.457 27.1512C110.404 27.4141 110.938 27.4411 114.842 27.423C118.494 27.406 118.747 27.3925 119.632 27.168C120.648 26.9102 121.165 26.4122 121.384 25.4783C121.488 25.036 121.487 23.7596 121.383 23.3866C121.186 22.6832 120.84 22.3096 120.194 22.1036C119.534 21.8932 119.503 21.8918 114.641 21.8615C110.303 21.8344 110.089 21.8297 109.584 21.7488C108.627 21.5956 108.119 21.4466 107.572 21.159C106.679 20.6896 106.132 19.8044 105.962 18.5523C105.894 18.0523 105.93 16.6896 106.021 16.2874C106.181 15.5825 106.476 15.0155 106.907 14.5859C107.368 14.1261 107.919 13.8483 108.82 13.6212C109.722 13.394 110.422 13.3246 112.34 13.272C114.305 13.218 118.601 13.2815 119.452 13.3771C121.39 13.5947 122.329 14.1942 122.764 15.4919C122.931 15.9895 123.005 16.5455 122.991 17.2012L122.98 17.7507H122.078H121.176L121.15 17.2897C121.105 16.4845 120.947 16.0052 120.608 15.6432C120.297 15.3107 119.879 15.1431 119.042 15.016C118.614 14.951 118.214 14.9444 114.722 14.9444C110.609 14.9444 110.339 14.9549 109.585 15.1454C108.857 15.3295 108.44 15.6259 108.186 16.1407C107.981 16.5582 107.912 16.9791 107.937 17.6705C107.994 19.2438 108.548 19.7923 110.331 20.0417C110.721 20.0963 111.479 20.1109 115.203 20.1356C119.748 20.1657 119.935 20.1726 120.772 20.341C122.364 20.6614 123.168 21.5735 123.358 23.2753C123.421 23.8378 123.412 25.2126 123.343 25.6686C123.137 27.0264 122.545 27.9356 121.537 28.4447C121.021 28.7052 120.158 28.9315 119.175 29.0636C118.759 29.1197 118.129 29.1299 114.701 29.1366C112.508 29.1409 110.622 29.1381 110.512 29.1303ZM37.6078 21.1985V13.441H39.1313H40.6548L47.6172 20.2664C51.4465 24.0203 54.6035 27.0976 54.6328 27.1047C54.6769 27.1154 54.6878 25.9429 54.6962 20.2893L54.7063 13.461H55.6484H56.5906L56.6007 21.2085L56.6108 28.956H55.1973H53.7837L47.0287 22.3376C43.3135 18.6975 40.1244 15.572 39.9418 15.392C39.6733 15.1272 39.6025 15.0761 39.5716 15.1248C39.5477 15.1623 39.5331 17.7711 39.5327 22.0704L39.5321 28.956H38.57H37.6078V21.1985ZM60.4692 21.2085L60.4793 13.461H68.0965H75.7136L75.7245 14.3128L75.7353 15.1646L69.0494 15.1748L62.3636 15.1849V17.6104V20.0358L68.7688 20.046L75.174 20.0561L75.1632 20.9079L75.1524 21.7597L68.758 21.7798L62.3636 21.7998L62.3533 24.5158L62.343 27.2318L69.0283 27.242L75.7136 27.2521L75.7245 28.104L75.7353 28.956H68.0972H60.4591L60.4692 21.2085ZM82.6494 28.7861C82.1154 27.4657 76.7427 13.5026 76.7587 13.4767C76.7708 13.457 77.2032 13.441 77.7196 13.441C78.6495 13.441 78.659 13.4418 78.7157 13.5312C78.7471 13.5808 79.9492 16.6612 81.3868 20.3766C82.8245 24.092 84.0186 27.1654 84.0403 27.2063C84.0621 27.2473 84.094 27.2653 84.1113 27.2464C84.1286 27.2275 85.284 24.1361 86.6788 20.3766C88.0736 16.6171 89.2329 13.5184 89.2549 13.4905C89.286 13.4512 89.5781 13.4422 90.5595 13.4504L91.8241 13.461L94.3605 20.3323C95.7555 24.1115 96.9153 27.2219 96.9377 27.2444C96.9655 27.2721 96.9906 27.2542 97.0161 27.1885C97.5421 25.8339 102.052 14.2813 102.187 13.9421L102.378 13.461L103.373 13.4503L104.368 13.4396L104.35 13.5347C104.34 13.587 102.99 17.0782 101.351 21.2929L98.3715 28.956H96.9792C95.9022 28.956 95.5827 28.9446 95.5681 28.9059C95.5577 28.8783 94.4439 25.8971 93.093 22.2809C91.7421 18.6648 90.6205 15.6626 90.6005 15.6094C90.5735 15.5376 90.5525 15.5243 90.5189 15.5578C90.4941 15.5827 89.3529 18.6029 87.9829 22.2695L85.492 28.9359L84.1053 28.9465L82.7185 28.957L82.6494 28.7861Z" fill="#979797"/>
</g>
</svg>
