<svg width="166" height="40" viewBox="0 0 166 40" fill="none" xmlns="http://www.w3.org/2000/svg">
<g opacity="0.5" clip-path="url(#clip0)">
<path d="M0.330872 39.313H165.592V0.99136H0.330872V39.313Z" fill="#979797"/>
<path d="M40.7302 26.4667C40.7302 27.7773 39.6776 28.8455 38.3789 28.8455C37.0755 28.8455 36.0244 27.8743 36.0244 26.5606V14.5588C36.0476 13.2654 37.1002 12.2222 38.3789 12.2222C39.6776 12.2222 40.7302 13.2857 40.7302 14.5994V26.4667ZM38.3789 6.24476C36.4207 6.24476 34.5693 6.64357 32.8712 7.36455C31.187 8.09492 29.656 9.13651 28.3805 10.433C27.0957 11.7217 26.0647 13.2654 25.3449 14.9701C24.6267 16.681 24.2335 18.5594 24.2335 20.5393C24.2335 22.5099 24.6267 24.3882 25.3449 26.0961C26.0647 27.8102 27.0957 29.3444 28.3805 30.6394C29.656 31.9374 31.187 32.979 32.8712 33.6969C34.5693 34.4226 36.4207 34.8214 38.3789 34.8214C40.3324 34.8214 42.19 34.4226 43.8804 33.6969C45.5785 32.979 47.1017 31.9374 48.3819 30.6394C49.6636 29.3444 50.693 27.8102 51.4081 26.0961C52.1264 24.3882 52.5258 22.5099 52.5258 20.5393C52.5258 18.5594 52.1264 16.681 51.4081 14.9701C50.693 13.2654 49.6636 11.7217 48.3819 10.433C47.1017 9.13651 45.5785 8.09492 43.8804 7.36455C42.19 6.64357 40.3324 6.24476 38.3789 6.24476ZM57.2579 19.2553L49.0134 4.85753H59.0706L62.4158 10.0327L65.7207 4.85753H74.9079L67.0349 19.149L76.3475 35.0544H66.4715L62.4158 28.2356L58.6945 35.0544H48.5413L57.2579 19.2553ZM5.39465 35.0935V4.90288H24.4951L24.5059 13.1449H14.2289V17.3692H21.9146V25.3203H14.0432V35.0935H5.39465Z" fill="white"/>
<path d="M98.8911 13.3552L97.035 13.3614V19.1309H98.744C99.7285 19.1293 100.211 18.6085 100.211 17.6185V14.8613C100.211 13.8322 99.7533 13.3552 98.8911 13.3552Z" fill="#C4C4C4"/>
<path d="M111.87 13.0463C110.762 13.0682 110.316 13.5858 110.316 14.862L110.339 25.1513C110.339 25.278 110.354 25.4 110.379 25.522C110.54 26.2336 110.991 26.6199 111.754 26.6386C112.994 26.6715 113.472 26.0678 113.472 24.9902L113.481 14.6978C113.481 13.5592 113.008 13.0291 111.87 13.0463Z" fill="#C4C4C4"/>
<path d="M149.91 30.0723C145.501 29.9628 144.012 28.5271 144.026 25.2225L144.028 23.4771H148.438V24.7987C148.441 25.9935 148.748 26.4611 149.551 26.6316C149.724 26.6707 149.902 26.6754 150.08 26.6519C150.881 26.5347 151.257 25.9669 151.21 24.8972C151.169 23.8228 150.961 23.3974 150.014 22.667L146.012 19.575C144.57 18.4568 144.012 17.0148 144.254 14.3202C144.554 11.003 145.811 9.80813 149.537 9.75652C150.094 9.74245 150.656 9.75652 151.21 9.78311C153.898 9.91292 155.269 11.3549 155.269 14.317V16.0577H151.018V14.4202C151.018 13.6132 150.557 13.0768 149.878 13.0205C149.162 12.9736 148.661 13.4897 148.618 14.5141C148.611 14.6924 148.613 14.8613 148.618 15.0443C148.681 16.0045 148.871 16.3814 149.8 17.0618L153.78 19.9895C155.24 21.0702 155.718 22.2166 155.662 24.6861C155.565 28.5615 153.977 30.1709 149.91 30.0723ZM143.277 13.4428H139.584V29.758H135.051V13.4428H131.351V9.98799H143.277V13.4428ZM127.099 29.7783L126.647 28.6257C126.561 28.3442 126.505 28.0345 126.505 27.6451V22.8312C126.505 21.8052 126.033 21.3892 124.601 21.3564L123.587 21.3235V29.7783H119.407V10.0161H125.647C129.18 10.0161 130.443 11.2829 130.531 14.525C130.605 17.2338 130.124 18.3161 128.779 19.1684L128.297 19.4671L128.89 19.7267C130.081 20.2679 130.571 21.0233 130.571 22.4199L130.577 27.9766C130.577 28.2972 130.627 28.6053 130.74 28.9259L131.084 29.7783H127.099ZM117.564 26.7614C116.674 29.1293 115.133 30.0676 111.658 30.0019C110.941 29.9879 110.226 29.9112 109.533 29.7689C107.432 29.3482 105.864 27.351 105.864 24.7377V15.1756C105.864 11.4659 107.983 9.51567 112.35 9.65643C116.265 9.77373 117.927 11.5864 117.927 15.5479L117.938 24.9488C117.941 25.4571 117.833 26.0404 117.564 26.7614ZM104.394 18.7321C104.394 21.1515 103.222 22.448 101.216 22.5387C100.805 22.5513 100.398 22.5544 99.9895 22.5544H97.0143V29.758H92.5407V10.0161H100.502C103.056 10.0161 104.394 11.3471 104.394 13.5022V18.7321ZM85.4928 30.0723C81.0749 29.9628 79.5888 28.5271 79.6027 25.2225V23.4771H84.0176V24.7987C84.0207 25.9935 84.3194 26.4611 85.1244 26.6316C85.2931 26.6707 85.4819 26.6754 85.6553 26.6519C86.4541 26.5347 86.8287 25.9669 86.7822 24.8972C86.7404 23.8228 86.5377 23.3974 85.5841 22.667L81.5826 19.575C80.1461 18.4568 79.5888 17.0148 79.8287 14.3202C80.1275 11.003 81.3783 9.80813 85.1089 9.75652C85.6739 9.74245 86.225 9.75652 86.7822 9.78311C89.4695 9.91292 90.8426 11.3549 90.8426 14.317V16.0577H86.5872V14.4202C86.5872 13.6132 86.1321 13.0768 85.4479 13.0205C84.7374 12.9736 84.2343 13.4897 84.2002 14.5141C84.1847 14.6924 84.1878 14.8613 84.2002 15.0443C84.2575 16.0045 84.4448 16.3814 85.3689 17.0618L89.3534 19.9895C90.8163 21.0702 91.2899 22.2166 91.2358 24.6861C91.1429 28.5615 89.5578 30.1709 85.4928 30.0723ZM78.3102 4.86134L70.544 19.2357L79.7839 35.041H160.48V4.86134H78.3102Z" fill="#C4C4C4"/>
<path d="M125.204 13.3706L123.588 13.3769V17.9421L125.048 17.9468C126.102 17.9468 126.56 17.4823 126.56 16.3672L126.569 14.9643C126.569 14.8267 126.557 14.6781 126.53 14.5373C126.369 13.6991 125.973 13.3659 125.204 13.3706Z" fill="#C4C4C4"/>
</g>
<defs>
<clipPath id="clip0">
<rect width="165.676" height="38.7401" fill="white" transform="translate(0.123779 0.782227)"/>
</clipPath>
</defs>
</svg>
