<?xml version="1.0" encoding="utf-8"?>
<!-- Generator: Adobe Illustrator 24.1.3, SVG Export Plug-In . SVG Version: 6.00 Build 0)  -->
<svg version="1.1" id="Layer_1" xmlns="http://www.w3.org/2000/svg" xmlns:xlink="http://www.w3.org/1999/xlink" x="0px" y="0px"
	 viewBox="0 0 166 55" style="enable-background:new 0 0 166 55;" xml:space="preserve">
<style type="text/css">
	.st0{fill:#979797;}
</style>
<path class="st0" d="M24.9,27.9H14.4v-1.2c0.2,0,0.6-0.1,1-0.1s0.7-0.1,0.9-0.2c0.3-0.2,0.6-0.4,0.7-0.6c0.1-0.3,0.2-0.6,0.2-1V17
	H8.9v7.6c0,0.4,0.1,0.7,0.2,1c0.1,0.3,0.4,0.5,0.7,0.7c0.2,0.1,0.5,0.2,0.9,0.3c0.4,0.1,0.8,0.2,1,0.2V28H1.2v-1.2
	c0.2,0,0.6,0,1-0.1s0.8-0.1,1-0.2c0.3-0.1,0.6-0.3,0.7-0.6c0.1-0.3,0.2-0.6,0.2-1V8.8c0-0.4-0.1-0.7-0.2-0.9
	C3.8,7.7,3.6,7.4,3.2,7.2C2.9,7.1,2.6,7,2.2,6.9c-0.5-0.1-0.8-0.2-1-0.2V5.4h10.5v1.2c-0.3,0-0.6,0.1-1,0.2S10,7,9.8,7.1
	C9.5,7.2,9.2,7.4,9.1,7.7C9,8,8.9,8.3,8.9,8.7v6.7h8.3V8.8c0-0.4-0.1-0.7-0.2-0.9c-0.1-0.3-0.4-0.5-0.7-0.7
	c-0.2-0.1-0.6-0.2-0.9-0.4c-0.4-0.1-0.7-0.2-0.9-0.2V5.4H25v1.2c-0.3,0-0.6,0.1-1,0.1c-0.4,0.1-0.7,0.2-1,0.3
	c-0.3,0.1-0.6,0.4-0.7,0.6c-0.1,0.3-0.2,0.6-0.2,1v15.9c0,0.4,0.1,0.7,0.2,1s0.4,0.5,0.7,0.7c0.2,0.1,0.5,0.2,0.9,0.3s0.8,0.1,1,0.2
	V27.9z M41.4,24.1c-0.3,0.6-0.7,1.2-1.2,1.7s-1,1-1.5,1.4c-0.6,0.4-1.2,0.7-1.9,0.9c-0.6,0.2-1.3,0.3-2.2,0.3
	c-1.3,0-2.5-0.2-3.5-0.7c-1-0.4-1.8-1-2.4-1.8s-1.1-1.6-1.4-2.7s-0.5-2.1-0.5-3.3c0-1.1,0.2-2.1,0.5-3.1s0.8-1.9,1.5-2.6
	c0.6-0.8,1.4-1.4,2.3-1.8c0.9-0.5,2-0.7,3.2-0.7c1.3,0,2.3,0.2,3.1,0.5c0.8,0.4,1.5,0.9,2,1.5s0.9,1.3,1.1,2.1
	c0.2,0.8,0.4,1.7,0.4,2.6v1h-9.2c0,2.2,0.4,3.8,1.1,4.9c0.7,1.1,1.9,1.7,3.4,1.7c0.9,0,1.6-0.3,2.3-0.8s1.3-1.2,1.7-2.1L41.4,24.1z
	 M36.1,18.1c0-0.6,0-1.3-0.1-1.9c-0.1-0.7-0.2-1.2-0.3-1.6c-0.2-0.5-0.4-0.9-0.6-1.1c-0.3-0.3-0.6-0.4-1-0.4c-0.7,0-1.3,0.4-1.7,1.2
	s-0.6,2.1-0.7,3.9L36.1,18.1z M56.3,15.1c0,0.8-0.2,1.5-0.6,2.1c-0.4,0.6-1,0.9-1.7,0.9s-1.2-0.2-1.7-0.6c-0.5-0.4-0.7-1-0.7-1.7
	c0-0.4,0-0.7,0.1-0.9c0-0.2,0.1-0.4,0.1-0.6c-0.4,0-0.9,0.2-1.3,0.5c-0.5,0.3-0.9,0.7-1.2,1.3v8.7c0,0.4,0.1,0.7,0.2,0.9
	s0.3,0.4,0.5,0.6c0.2,0.1,0.5,0.2,1,0.3c0.5,0.1,0.8,0.1,1,0.1v1.2h-9.1v-1.2c0.2,0,0.5-0.1,0.7-0.1s0.4-0.1,0.6-0.2
	c0.3-0.1,0.5-0.3,0.6-0.5s0.2-0.6,0.2-1v-9.2c0-0.4-0.1-0.7-0.2-1c-0.2-0.3-0.3-0.5-0.6-0.7c-0.2-0.1-0.4-0.2-0.6-0.3
	c-0.3-0.1-0.5-0.1-0.8-0.2v-1.2L49,12l0.2,0.2v2.3h0.1c0.6-0.8,1.3-1.5,2-2s1.4-0.7,2.2-0.7s1.5,0.3,2,0.9
	C56,13.4,56.3,14.1,56.3,15.1z M72.8,27.6c-0.4,0.2-0.9,0.4-1.4,0.6s-1.1,0.3-1.7,0.3c-1.1,0-1.9-0.2-2.5-0.6
	c-0.5-0.4-0.9-0.9-1.1-1.7H66c-0.3,0.4-0.6,0.7-0.9,0.9c-0.3,0.3-0.6,0.5-0.9,0.6c-0.4,0.2-0.8,0.4-1.2,0.5s-0.9,0.2-1.7,0.2
	c-1.1,0-2-0.4-2.7-1.1s-1.1-1.7-1.1-2.9c0-0.7,0.1-1.3,0.2-1.8c0.2-0.5,0.4-0.9,0.7-1.3c0.3-0.3,0.6-0.6,0.9-0.8
	c0.4-0.2,0.8-0.4,1.2-0.6c0.8-0.3,1.8-0.7,3-1.1c1.1-0.4,2-0.7,2.5-1v-1.5c0-0.3,0-0.6-0.1-1c0-0.4-0.1-0.8-0.2-1.1
	s-0.3-0.6-0.6-0.9C64.8,13.1,64.5,13,64,13c-0.4,0-0.7,0.1-1,0.2c-0.3,0.1-0.5,0.3-0.6,0.4c0,0.2,0.1,0.5,0.2,1s0.2,0.9,0.2,1.3
	c0,0.2,0,0.4-0.1,0.7c-0.1,0.3-0.2,0.5-0.4,0.6c-0.2,0.2-0.4,0.4-0.7,0.5s-0.7,0.2-1.2,0.2c-0.8,0-1.3-0.2-1.7-0.6s-0.6-1-0.6-1.7
	c0-0.6,0.2-1.1,0.6-1.6c0.4-0.5,0.9-0.9,1.5-1.2s1.2-0.6,2-0.7c0.7-0.2,1.4-0.3,2.1-0.3c0.9,0,1.7,0.1,2.4,0.2
	c0.7,0.1,1.4,0.4,2,0.8c0.6,0.4,1,0.9,1.3,1.6c0.3,0.7,0.5,1.6,0.5,2.7c0,1.2,0,2.6-0.1,4.2c0,1.6-0.1,2.7-0.1,3.2s0.1,0.9,0.2,1.1
	c0.1,0.3,0.3,0.5,0.6,0.6c0.2,0.1,0.4,0.1,0.7,0.2c0.3,0,0.6,0,0.9,0L72.8,27.6L72.8,27.6z M66,19.3c-0.5,0.2-1,0.4-1.5,0.7
	c-0.5,0.3-0.9,0.5-1.2,0.8s-0.6,0.7-0.8,1.1c-0.2,0.5-0.3,1-0.3,1.6c0,0.8,0.2,1.4,0.5,1.8s0.7,0.6,1.2,0.6s0.9-0.1,1.2-0.4
	c0.3-0.2,0.6-0.5,0.9-0.9V19.3z M82.2,27.9h-8.6v-1.2c0.2,0,0.5,0,0.7-0.1c0.2,0,0.4-0.1,0.6-0.2c0.3-0.1,0.5-0.3,0.6-0.5
	s0.2-0.6,0.2-0.9V7.5c0-0.4-0.1-0.8-0.2-1.1c-0.1-0.3-0.3-0.6-0.6-0.8c-0.2-0.1-0.5-0.3-0.8-0.4c-0.4-0.1-0.7-0.2-1-0.2V3.8L80,3.4
	l0.2,0.3v21.2c0,0.4,0.1,0.7,0.2,1s0.3,0.4,0.6,0.6c0.2,0.1,0.4,0.2,0.6,0.3c0.2,0.1,0.4,0.1,0.7,0.2L82.2,27.9L82.2,27.9z
	 M101.2,27.6L94.4,28l-0.2-0.2v-1.5h-0.1c-0.4,0.6-1,1-1.8,1.5c-0.8,0.4-1.5,0.6-2.3,0.6c-1.8,0-3.4-0.8-4.5-2.4
	c-1.2-1.6-1.8-3.6-1.8-6.1c0-2.2,0.7-4.1,2-5.7s2.9-2.4,4.8-2.4c0.7,0,1.4,0.1,2.1,0.3s1.2,0.4,1.6,0.7V7.6c0-0.4-0.1-0.8-0.2-1.1
	c-0.1-0.3-0.3-0.6-0.5-0.8c-0.3-0.2-0.6-0.4-1.1-0.5C92,5.1,91.5,5,91.1,5V3.8l7.4-0.4l0.2,0.3v20.8c0,0.4,0.1,0.7,0.2,1
	s0.3,0.5,0.6,0.6c0.2,0.1,0.5,0.2,0.8,0.3c0.4,0.1,0.7,0.1,0.9,0.1V27.6z M94.2,24.8v-9c-0.1-0.2-0.2-0.5-0.3-0.8
	c-0.1-0.3-0.3-0.6-0.5-0.8s-0.4-0.4-0.7-0.6c-0.3-0.2-0.6-0.3-1-0.3c-0.9,0-1.7,0.6-2.2,1.8c-0.6,1.2-0.9,2.9-0.9,5.1
	c0,0.9,0.1,1.6,0.2,2.3c0.1,0.7,0.3,1.3,0.6,1.9c0.3,0.6,0.6,1,1,1.3s0.9,0.5,1.5,0.5s1-0.1,1.4-0.4C93.5,25.5,93.9,25.2,94.2,24.8z
	 M117.5,28.5c-1.2,0-2.3-0.2-3.3-0.5s-1.9-0.7-2.6-1.2l-0.9,1.1h-1.2l-0.2-8.1h1.2c0.3,0.8,0.6,1.6,1,2.4c0.4,0.9,0.9,1.6,1.4,2.3
	c0.6,0.7,1.2,1.3,1.9,1.7c0.7,0.4,1.5,0.7,2.4,0.7c1.2,0,2.2-0.4,2.8-1.1c0.7-0.7,1-1.6,1-2.7c0-0.9-0.3-1.6-0.8-2.2
	c-0.6-0.6-1.4-1.1-2.6-1.5c-0.8-0.3-1.5-0.5-2.1-0.8c-0.6-0.2-1.2-0.5-1.8-0.7c-1.3-0.6-2.3-1.5-2.9-2.6s-0.9-2.4-0.9-3.8
	c0-0.9,0.2-1.7,0.5-2.5s0.8-1.5,1.4-2.2c0.6-0.6,1.4-1.1,2.3-1.5s2-0.6,3.1-0.6s2.1,0.2,3,0.5c0.9,0.3,1.7,0.7,2.2,1l0.8-1h1.2
	l0.1,7.7h-1.2c-0.3-0.8-0.6-1.7-1-2.5c-0.4-0.9-0.8-1.6-1.2-2.1c-0.4-0.6-1-1.1-1.5-1.5c-0.6-0.4-1.3-0.5-2-0.5c-1,0-1.8,0.3-2.4,1
	c-0.6,0.6-0.9,1.4-0.9,2.4c0,0.9,0.3,1.6,0.8,2.2c0.5,0.6,1.4,1.1,2.5,1.5c0.7,0.3,1.4,0.5,2.1,0.8s1.3,0.5,1.9,0.8
	c1.3,0.6,2.3,1.4,3,2.4s1,2.3,1,3.9c0,1-0.2,1.9-0.6,2.8s-0.9,1.7-1.6,2.3c-0.7,0.7-1.6,1.2-2.5,1.5
	C119.9,28.3,118.7,28.5,117.5,28.5z M145.2,27.6l-6.5,0.5l-0.2-0.2v-2.1h-0.1c-0.3,0.3-0.6,0.6-0.9,1c-0.3,0.3-0.6,0.6-1.1,0.8
	c-0.5,0.3-0.9,0.5-1.3,0.6c-0.4,0.1-1,0.2-1.8,0.2c-1.4,0-2.4-0.5-3.2-1.4c-0.7-1-1.1-2.3-1.1-4.1v-7.1c0-0.4-0.1-0.7-0.2-1
	c-0.1-0.3-0.3-0.5-0.5-0.7s-0.4-0.3-0.7-0.3c-0.3-0.1-0.6-0.1-0.8-0.1v-1.2l6.6-0.4l0.2,0.2v10.5c0,1.1,0.2,1.9,0.5,2.4
	c0.4,0.5,0.9,0.8,1.5,0.8s1.2-0.2,1.7-0.6s0.9-0.8,1.1-1.3v-8.5c0-0.4-0.1-0.7-0.2-1c-0.1-0.3-0.3-0.5-0.5-0.7
	c-0.2-0.1-0.4-0.2-0.7-0.3c-0.3,0-0.6-0.1-0.9-0.1v-1.2l6.6-0.4l0.2,0.2v12.2c0,0.4,0.1,0.7,0.2,0.9c0.1,0.3,0.3,0.5,0.6,0.7
	c0.2,0.1,0.4,0.2,0.7,0.3c0.3,0,0.6,0.1,0.8,0.1L145.2,27.6L145.2,27.6z M164.3,27.9h-8.2v-1.2c0.2,0,0.4,0,0.6-0.1s0.4-0.1,0.6-0.2
	c0.2-0.1,0.3-0.3,0.4-0.5c0.1-0.2,0.1-0.5,0.1-1v-7.4c0-1.1-0.2-1.9-0.5-2.4s-0.8-0.8-1.5-0.8c-0.4,0-0.7,0.1-1,0.2
	c-0.3,0.1-0.6,0.3-0.9,0.6c-0.3,0.2-0.5,0.4-0.6,0.6c-0.2,0.2-0.3,0.4-0.4,0.6v8.5c0,0.4,0,0.7,0.1,0.9c0.1,0.2,0.2,0.4,0.5,0.6
	c0.1,0.1,0.3,0.2,0.5,0.3c0.2,0.1,0.4,0.1,0.6,0.2V28h-8.3v-1.2c0.2,0,0.5-0.1,0.7-0.1s0.4-0.1,0.6-0.2c0.3-0.1,0.5-0.3,0.6-0.5
	s0.2-0.6,0.2-1v-9.2c0-0.3-0.1-0.6-0.2-1c-0.1-0.3-0.3-0.6-0.6-0.8c-0.2-0.1-0.4-0.2-0.6-0.3c-0.3-0.1-0.5-0.1-0.8-0.2v-1.2l6.5-0.4
	l0.2,0.2v2.3h0.1c0.3-0.3,0.6-0.6,0.9-1c0.4-0.4,0.7-0.7,1-0.9c0.3-0.3,0.8-0.5,1.3-0.6c0.5-0.2,1.1-0.3,1.7-0.3
	c1.5,0,2.6,0.5,3.3,1.5s1.1,2.3,1.1,3.9v7.8c0,0.4,0.1,0.7,0.1,0.9c0.1,0.2,0.3,0.4,0.6,0.6c0.1,0.1,0.3,0.1,0.5,0.2
	s0.5,0.1,0.7,0.2L164.3,27.9L164.3,27.9z"/>
<path class="st0" d="M15.7,34.2c-0.8,0-1.4,0.5-1.5,0.7c-0.2,0.2-0.4,0.6-0.4,0.6s-0.3-0.8-1-0.8c-0.2,0-0.3,0,0,0.4
	c0.1,0.1,0.2,0.6,0.2,1v11.3c0,0.2-0.1,0.7-0.2,0.9l-0.3,0.3l1.8,1.4l1.7-1.5L15.2,48v-6.5l0.8-0.7l1.2,1v8c0,0.6-0.4,1.7-0.9,2.2
	c-0.1,0.2-0.1,0.1-0.1,0.3c0.6,0,1.7-0.7,2.1-1.1c0.4-0.4,1.1-1.2,1.1-3v-6c0-1.2,0.7-0.8,0.1-1.4L17,39.1l-1.9,1.8v-5.1
	C15.2,35,15.6,34.5,15.7,34.2z M92,34.3c-0.7,0.2-1.2,0.7-1.5,1.3c-0.3-0.4-0.7-0.7-1.2-0.8c0.2,0.2,0.4,0.9,0.4,1V47
	c0,0.6,0.1,1.3-0.3,1.6l1.8,1.3l1.4-1.2c0.1-0.1,0.1-0.1,0-0.2c-0.3-0.1-0.6-0.4-0.9-0.6V35.7c0.1-0.6,0.1-0.9,0.3-1.2
	C92.1,34.3,92.1,34.3,92,34.3z M157.1,34.3c-0.7,0.2-1.2,0.7-1.5,1.3c-0.3-0.4-0.7-0.7-1.2-0.8c0.2,0.2,0.4,0.9,0.4,1V47
	c0,0.6,0.1,1.3-0.3,1.6l1.8,1.3l1.4-1.2c0.1-0.1,0.1-0.1,0-0.2c-0.3-0.1-0.6-0.4-0.9-0.6V35.7c0.1-0.6,0.1-0.9,0.3-1.2
	C157.2,34.3,157.2,34.3,157.1,34.3z M110.4,34.4V37l2,2c0.1,0.1,0,0.2-0.1,0.2l-2.6,1.7v6.7c0,0.2-0.2,0.4-0.3,0.5l3.1,1.8l3.5-2
	c0.2-0.1,0.2-0.2,0.1-0.3s-0.2-0.2-0.2-0.3V40L110.4,34.4z M159.5,34.4V37l2,2c0.1,0.1,0,0.2-0.1,0.2l-2.6,1.7v6.7
	c0,0.2-0.2,0.4-0.3,0.5l3.1,1.8l3.5-2c0.2-0.1,0.2-0.2,0.1-0.3c-0.1-0.1-0.2-0.2-0.2-0.3V40L159.5,34.4z M74.3,34.6l-0.5,0.5
	c0.4,0,0.9,0.1,1.1,0.3c0.2,0.2,0.2,0.6-0.1,0.9c-0.2,0.3-0.7,0.4-1.3,0.3c-2.1-0.5-3.9-1.8-6.1-1.9c-0.6,0-1.2,0.1-1.7,0.5
	c-0.6,0.5-1,1-1,2.1c0,1,0.9,1.6,1.8,1.7c0.9,0.1,1.6,0.1,2.2-0.3c0.1,0,0.2-0.4,0.2-0.4c-0.7,0.4-1.3,0.4-2.1,0.3
	c-0.7-0.1-1.2-0.3-1.4-0.7c-0.2-0.5,0-1,0.6-1.2c0.6-0.1,1.3,0,1.9,0.2c1.3,0.4,2.4,1.1,3.7,1.5c0.9,0.2,1.8,0.2,2.6-0.2
	c0.6-0.4,0.9-0.8,1.1-1.3c0.1-0.2,0.1-0.4,0.1-0.5c0.1,0.5,0,1-0.3,1.5c-0.5,0.7-1,1.3-1.6,1.9c-0.8,0.7-1.6,1.3-2.5,1.8
	c-0.1,0.1-0.2,0.1-0.7-0.1c-0.5-0.2-1.6-0.6-2.8-0.3c-1.2,0.3-1.7,0.9-2.3,2c-0.2,0.4-0.2,0.5,0.1,0.3c1-0.7,2.2-0.7,3.4-0.5
	c0.1,0,0,0.1-0.3,0.3c-1.4,1-2.9,2-3.9,3.4c-0.6,0.8-0.7,1.8-0.5,2.5c0.3,0.7,0.8,1.1,1.5,1.1l0.6-0.7c-0.6,0.1-1.6,0-1.4-0.9
	c0.3-0.7,0.9-0.7,1.6-0.6c1.8,0.4,3.4,1.7,5.2,2c0.8,0.1,1.6,0.1,2.3-0.2c0.9-0.5,1.3-1.1,1.3-2.3s-1.2-1.7-2.2-1.8s-1.6,0-2.1,0.4
	c0,0.1-0.1,0.3-0.1,0.3c0.5-0.2,0.9-0.4,1.5-0.4c0.8,0,1.7,0.2,2.2,0.9c0.4,1.2-1,1.4-1.8,1.2c-1.8-0.6-3.4-1.9-5.4-1.9
	c-1.6,0.1-2.6,1-3,2.3c-0.1-0.8,0.8-1.9,1.3-2.5c0.9-0.8,1.8-1.5,2.8-2.2c0.9-0.6,0.9-0.6,1-0.6c1.3,0.5,2.4,0.6,3.4,0.2
	c1-0.4,1.5-1.6,1.8-2.2c-0.4,0.2-1,0.5-1.3,0.5c-0.4,0.1-1.1,0.1-1.6,0c-0.2-0.1-0.2-0.1-0.1-0.2c1-0.6,2.2-1.6,3-2.4
	c0.8-1,1.5-2.2,1.2-3.3C75.7,35,75,34.6,74.3,34.6z M126,34.7c-0.5,0.2-0.7,0.5-1.3,0.5c-0.6,0-1.6-0.5-2.5-0.4
	c-0.9,0.1-1.7,0.9-1.9,1.6c0.4-0.1,0.3-0.3,1-0.3s2,0.6,2.8,0.4C124.9,36.2,125.7,35.3,126,34.7z M129.9,34.8c-1,0-1.6,0.4-2.3,0.9
	s-1.4,1.1-1.6,2c0,0.2-0.1,1.1-0.1,4.2s0,4-0.1,4.1c-0.2,0.5-0.3,1.1-0.7,1.5c-0.1,0.1-0.1,0.1-0.2,0.1c-0.6,0.1-1.1,0.3-1.6,0.7
	c-0.7,0.4-1.6,1.2-1.6,1.8c0.5-0.3,1.5-0.8,2.6-0.8c1.3,0,2.3,0,3.5,0.8l2.1-2l-0.2-0.2l-0.8,0.7v-7.2l1-0.7c0.1,0,0.1-0.1,0.2,0
	l1.4,1v6.8c0,0.9-0.1,1.6-0.6,2.3h1.3c0.8-0.8,1.2-1.6,1.2-2.8v-6.2c0-0.6,0.4-1,0.3-1l-0.1-0.1l-2.3-1.3L129,41v-5.5
	c0.4,0,0.7,0.2,1,0.4c0.3,0.2,0.7,0.6,1.1,1.2c0,0.1,0.1,0.1,0.2,0l1.9-1.8l-0.2-0.2l-0.4,0.4c-0.2,0.2-0.3,0.1-0.5-0.1
	c-0.3-0.2-0.9-0.6-2-0.6C130.1,34.8,130,34.8,129.9,34.8z M37.4,34.8L34.1,37c-0.3,0.2-0.6,0.5-0.8,0.6c-0.3,0.3-0.6,0.7-0.6,0.9
	c-0.1,0.4-0.2,0.7-0.1,1.1c0,0.2,0,0.4,0,0.5s-0.1,0.1-0.3,0.1c-0.7-0.1-1.2-0.1-1.7,0.5c-0.3,0.4-0.5,0.8-0.5,1.3
	c-0.1,0.4,0,0.5,0.3,0.2c0.4-0.5,1.4-0.6,2-0.3c0.2,0.1,0.1,0,0.1,0.7c0,0.4,0,0.5-0.1,0.5h-0.1c-0.7-0.1-1.3-0.2-1.8,0.4
	c-0.3,0.4-0.5,0.9-0.5,1.4c-0.1,0.4,0,0.5,0.3,0.2c0.2-0.2,0.5-0.3,0.8-0.4c0.5-0.1,1-0.1,1.4,0.2c0,0.7,0,1.5-0.5,2.1
	c-0.2,0.3,0,0.3,0.5,0c0.6-0.3,0.9-0.5,1.3-0.8c0.3-0.4,0.6-0.8,0.7-1.3c0-0.1,0-0.9,0.1-3.8c0-3.9,0-3.7,0.2-4.1
	c0.1-0.1,0.6-0.5,0.7-0.5v5.4c0,3.4,0,5.4,0,5.5c-0.1,0.3-0.2,0.6-0.3,0.8c-0.4,0.4-0.7,0.5-1.2,0.4c-0.3,0-0.6-0.2-0.9-0.3
	c-0.6-0.4-1.4-0.7-2.1-0.5s-1.6,0.9-1.7,2.5c0.5-0.5,1.1-0.9,1.8-0.9c0.7,0,1.4,1,2.7,0.9s1.7-0.8,1.9-1.9c0.1-0.5,0.1-1,0.1-1.6V44
	c0.4-0.2,1-0.5,1.8-0.5s1.3,0.3,1.8,0.5v1.9c0,0.4,0,0.8-0.3,1.2c-0.2,0.4-0.4,0.7-0.6,0.7C38,48,37.3,48.4,37,48.6s-1,0.9-1,1.5
	c0.6-0.4,1.2-0.8,2-0.8c0.7,0,1.5,0.4,2.2,0.8l2.2-2.1l-0.2-0.2l-0.8,0.8c-0.3-0.2-0.7-0.4-1.1-0.5c-0.5-0.2-0.9-0.2-1.4-0.2
	c0.7-0.6,1.5-1.1,2-1.9c0.1-0.2,0.3-0.5,0.3-0.7c0.1-0.4,0.1-0.9,0.1-1.3v-5.9c0.1-0.3,0.2-0.5,0.4-0.6c0.1-0.1,0.1-0.1-0.2-0.2
	L37.4,34.8z M4.2,34.9c-0.3,0-0.5,0-0.7,0.1c-1.4,0.3-2.2,1.3-2.8,2.6c-0.4,0.7-0.4,0.7-0.4,0.8c0,0.1,0,0.1,0,0.1
	c0,0.1,0.2,0,0.3-0.1c0.5-0.5,1-1,1.4-1.2c0.3-0.2,0.7-0.3,1-0.3c1.1-0.1,2.1,0.4,3.2,0.5c0.4,0.1,0.9,0.3,1.5,0.4l-1.4,0.9
	c-0.9,0.5-0.6,0.5-0.4,0.6c0.2,0.2,0.2,0.3,0.2,0.5v5.3c0,0.7-0.3,1.5-0.5,1.7c-0.1,0.1-0.1,0.3,0,0.3c0.5,0,1.5-0.8,1.9-1.1
	c0.3-0.3,0.9-0.9,0.9-3.2v-4.9c0.3,0,0.5,0,0.8,0.1l0.1,9.9c-2.2,0.6-4.1,0.2-5.2-1.7S3,41,5.3,38.5c0.2-0.3,0.3-0.4,0.1-0.4
	C5.2,38,5,38.2,4.8,38.3c-5.2,2.8-4.3,8.3-1.9,10.5s7.8,2.5,9.4-2.2c0.1-0.2-0.1-0.3-0.2-0.3c-0.1,0-0.1,0.1-0.4,0.4
	c-0.6,0.6-1.2,0.9-2,1.2V38c0.5-0.1,0.7-0.2,1.3-0.5c0.5-0.3,1-0.9,1.2-1.5c0.2-0.4,0.2-0.5,0.2-0.7c-0.1-0.1-0.2-0.1-0.4,0
	c-0.4,0.4-0.9,0.7-1.5,0.6c-1.5-0.2-3.1-0.7-4.7-1c-0.3-0.1-0.7-0.1-1.1-0.1C4.4,34.9,4.3,34.9,4.2,34.9z M128.7,35.4
	C128.8,35.4,128.8,35.4,128.7,35.4l0.1,12.8c0,0.1,0,0.1-0.3,0c-0.9-0.4-1.8-0.6-2.7-0.7c0,0,0-0.2,0.1-0.2c0.5-0.3,1-0.7,1.4-1.2
	c0.2-0.4,0.6-0.9,0.6-2.1v-7.6c0-0.6,0.3-0.9,0.6-1C128.6,35.5,128.7,35.4,128.7,35.4z M35.8,36.2l3.5,2v3.1
	c-0.5,0.3-1.1,0.5-1.8,0.5s-1.3-0.2-1.8-0.5L35.8,36.2L35.8,36.2z M125.8,36.4c-0.8,0.2-1.6,0.9-2,1.5c-0.4,0.7-0.4,1.1-0.4,2.2
	c-0.1,0.1-0.2,0-0.4,0c-0.7-0.1-1.3,0.1-1.6,0.6c-0.3,0.5-0.6,1.2-0.4,1.6c0.2-0.1,0.4-0.5,0.8-0.6s1.2-0.2,1.6,0.1V43
	c0,0.1-0.2,0.1-0.3,0.1c-0.7-0.1-1.1-0.1-1.5,0.4s-0.7,1.3-0.5,1.8c0.2-0.2,0.5-0.5,0.8-0.6c0.5-0.1,1-0.1,1.5,0
	c0.1,0,0.1,0.2,0.1,0.7c0,0.9-0.3,1.7-0.8,2.4c0.8-0.2,1.5-0.9,2.1-1.6c0.3-0.4,0.6-1,0.6-1.7v-6.3
	C125.2,37.6,125.7,36.7,125.8,36.4z M51,37.3c-0.8,0-1.6,0.2-2,1c-0.2,0.5-0.3,1.1-0.1,1.6c0.3,0.5,0.7,0.8,0.9,1.3
	c0.1,0.2,0.1,0.3,0.1,3.4c0,3.1,0,3.2-0.1,3.3c0,0.1-0.1,0.2-0.2,0.3c-0.1,0.2-0.1,0.2,0,0.3l2.6,1.5c0.2,0.1,0.3,0.1,0.5-0.1
	l1.5-1.2l2,1.2c0.1,0.1,0.3,0.2,0.3,0.2s0.1,0,0.2-0.1l3.3-2v-3.4c0-2.6,0-3.4,0.1-3.5c0.1-0.2,0.1-0.5,0.4-0.6h0.1
	c0,0-0.1-0.1-0.2-0.2l-1.5-1.1l-1.6,1.4l0.8,0.5v7.7l-2-1.1c-0.1-0.1-0.1,0-0.1-0.1v-5.8c0-0.4,0-0.8,0.3-1.1
	c0.1-0.1,0.1-0.1,0.1-0.2c0,0,0-0.1-0.1-0.1l-1.5-1.1l-1.6,1.4l0.7,0.5v7.3l-0.3,0.2l-2.5-1.5c0.3-0.3,0.6-0.7,0.6-1.2
	c0-0.1,0-1,0-2.7V41c0-0.3-0.1-0.5-0.2-0.7c-0.3-0.5-0.9-0.9-1.3-1.4c-0.2-0.4-0.1-0.9,0.2-1c0.3-0.1,0.4-0.2,0.6-0.2
	C51.1,37.5,51,37.3,51,37.3z M105.3,39.2l-2,1.6l-1.6-1.5l-1.4,1.3l1,0.9v6.3c0,0.5-0.2,0.8-0.4,1l1.6,1.3l1.6-1.4l-0.8-0.5v-6.8
	l0.6-0.5c0.1-0.1,0.2-0.1,0.4,0l1.3,1v5.9c0,0.5-0.1,0.7-0.2,0.9c-0.1,0.1-0.1,0.1,0.2,0.3l1.4,1l1.5-1.3l-1-0.8l0.1-6
	c0-0.2,0.2-0.5,0.4-0.7L105.3,39.2z M79.8,39.2c-0.5,0.3-1.1,0.6-1.7,0.9c-0.6,0.3-1.3,0.6-2,0.9v5.9c0,0.3,0,0.7-0.1,1
	c0,0.1,0,0.3-0.2,0.4c-0.1,0.1-0.1,0.2,0.2,0.3l2.8,1.5l2-2l-0.2-0.2l-0.2,0.2c-0.3,0.3-0.6,0.4-0.8,0.2l-1.3-0.7V45l3.5-2.9
	L79.8,39.2z M138.7,39.2c-0.5,0.3-1.1,0.6-1.7,0.9c-0.6,0.3-1.3,0.6-1.9,0.9v5.9c0,0.3,0,0.7-0.1,1c-0.1,0.1-0.1,0.3-0.3,0.4
	c-0.1,0.1-0.1,0.2,0.2,0.3l2.8,1.5l2-2l-0.2-0.2l-0.2,0.2c-0.3,0.3-0.6,0.4-0.8,0.2l-1.3-0.7V45l3.5-2.9L138.7,39.2z M142.1,39.2
	l-1.4,1.3l1,0.9v5.5c0,0.5,0,1.3-0.5,1.5l2.6,1.5l1.5-1.5l-1.7-0.8v-6.5L144,41c0.6,0.5,1.1,0.9,1.9,0.7c0.8-0.2,1.3-1.1,1.4-1.9
	c-0.4,0.1-1,0.1-1.3,0c-0.3-0.2-0.5-0.3-0.7-0.5l-1.6,1.6L142.1,39.2z M47,39.3c-0.5,0.3-1.1,0.6-1.7,0.9c-0.6,0.3-1.3,0.6-1.9,0.9
	V47c0,0.3,0,0.7-0.1,1c-0.1,0.1-0.1,0.3-0.3,0.4c-0.1,0.1-0.1,0.2,0.2,0.3l2.8,1.5l2-2L47.8,48l-0.2,0.2c-0.3,0.3-0.5,0.4-0.8,0.2
	l-1.3-0.7V45l3.5-2.9L47,39.3z M85.9,39.3c-0.1,0-0.1,0-0.2,0.1c-0.5,0.3-1,0.7-1.6,1c-0.5,0.3-1.1,0.6-1.6,0.9
	c-0.2,0.1-0.3,0.2-0.3,0.2c0.2,0.4,0.3,1,0.7,1.5c0.4,0.5,0.8,0.7,1.1,1.2c-1.2,0.5-2.2,1.5-2.1,2.8s0.4,1.9,1.8,2.9
	c0.1,0.1,0.3,0.1,0.3,0l1.9-1.2l1.4,1.3l1.5-1.5l-0.2-0.1c-0.3-0.2-0.6-0.4-0.8-0.7v-6.3c0-0.3,0.2-0.6,0.3-0.7c0.1,0,0-0.1-0.2-0.3
	L85.9,39.3L85.9,39.3z M24.5,39.3c-0.5,0.3-1.1,0.6-1.7,0.9c-0.6,0.3-1.3,0.6-1.9,0.9V47c0,0.3,0,0.7-0.1,1
	c-0.1,0.1-0.1,0.3-0.3,0.4c-0.1,0.1-0.1,0.2,0.2,0.3l2.8,1.5l2-2L25.3,48L25,48.1c-0.3,0.3-0.6,0.4-0.8,0.2l-1.3-0.7V45l3.5-2.9
	L24.5,39.3z M97,39.3c-0.1,0-0.1,0-0.2,0.1c-0.5,0.3-1,0.7-1.6,1c-0.5,0.3-1.1,0.6-1.6,0.9c-0.2,0.1-0.2,0.2-0.2,0.2
	c0.2,0.4,0.3,1,0.7,1.5c0.4,0.5,0.8,0.7,1.1,1.2C94,44.7,93,45.7,93.1,47s0.4,1.9,1.8,2.9c0.1,0.1,0.3,0.1,0.3,0l1.9-1.2l1.4,1.3
	l1.5-1.5l-0.2-0.1c-0.3-0.2-0.6-0.4-0.8-0.7v-6.3c0-0.3,0.2-0.6,0.3-0.7c0.1,0,0-0.1-0.2-0.3l-1.8-1.2C97.1,39.3,97,39.3,97,39.3z
	 M150.9,39.3c-0.1,0-0.1,0-0.2,0.1c-0.5,0.3-1,0.7-1.6,1c-0.5,0.3-1.1,0.6-1.6,0.9c-0.2,0.1-0.2,0.2-0.2,0.2c0.2,0.4,0.3,1,0.7,1.5
	s0.8,0.7,1.1,1.2c-1.2,0.5-2.2,1.5-2.2,2.8c0.1,1.3,0.4,1.9,1.8,2.9c0.1,0.1,0.3,0.1,0.3,0l1.9-1.2l1.4,1.3l1.5-1.5l-0.2-0.1
	c-0.3-0.2-0.6-0.4-0.8-0.7v-6.3c0-0.3,0.2-0.6,0.3-0.7c0.1,0,0-0.1-0.2-0.3l-1.8-1.2C151,39.3,150.9,39.3,150.9,39.3z M112.7,39.3
	l1.2,1.3v8.2c0,0.1,0,0.1-0.2,0l-2.1-1.3V40L112.7,39.3z M161.7,39.4l1.2,1.3v8.2c0,0.1,0,0.1-0.2,0l-2.1-1.3v-7.5L161.7,39.4z
	 M78.2,40.4C78.3,40.4,78.3,40.4,78.2,40.4l1.7,2.5c0.1,0.1,0.1,0.2-0.1,0.3l-1.6,1.3V40.4L78.2,40.4z M137.1,40.4
	C137.1,40.4,137.2,40.4,137.1,40.4l1.7,2.5c0.1,0.1,0.1,0.2-0.1,0.3l-1.6,1.3L137.1,40.4L137.1,40.4z M45.4,40.4L45.4,40.4l1.7,2.5
	c0.1,0.1,0.1,0.2-0.1,0.3l-1.6,1.3L45.4,40.4C45.4,40.5,45.4,40.4,45.4,40.4z M22.9,40.4C22.9,40.4,22.9,40.5,22.9,40.4l1.7,2.5
	c0.1,0.1,0.1,0.2-0.1,0.3l-1.6,1.3V40.4C22.9,40.5,22.9,40.4,22.9,40.4z M84.5,40.5l1.4,0.9v2.3c-0.5,0.1-0.8,0.1-1.3,0.3
	c-0.4-0.4-0.5-0.9-0.7-1.4c-0.1-0.5-0.3-1.4-0.1-1.7L84.5,40.5z M95.6,40.5l1.4,0.9v2.3c-0.5,0.1-0.8,0.1-1.3,0.3
	c-0.4-0.4-0.5-0.9-0.7-1.4c-0.1-0.5-0.3-1.4-0.1-1.7L95.6,40.5z M149.4,40.5l1.4,0.9v2.3c-0.5,0.1-0.8,0.1-1.3,0.3
	c-0.4-0.4-0.5-0.9-0.7-1.4c-0.1-0.5-0.3-1.4-0.1-1.7L149.4,40.5z M35.8,41.6c0.3,0.2,0.9,0.5,1.8,0.5c0.9,0,1.4-0.3,1.8-0.5v2.2
	c-0.5-0.3-1-0.5-1.8-0.5s-1.4,0.3-1.8,0.5V41.6z M85.8,44.1v4.4l-0.5,0.3c-1.1-0.5-1.4-1.1-1.5-2C83.7,45.8,84.1,44.1,85.8,44.1z
	 M96.9,44.1v4.4l-0.5,0.3c-1.1-0.5-1.4-1.1-1.5-2C94.8,45.8,95.2,44.1,96.9,44.1z M150.8,44.1v4.4l-0.5,0.3c-1.1-0.5-1.4-1.1-1.5-2
	C148.6,45.8,149.1,44.1,150.8,44.1L150.8,44.1z"/>
</svg>
