<svg width="158" height="52" viewBox="0 0 158 52" fill="none" xmlns="http://www.w3.org/2000/svg">
<g opacity="0.5" clip-path="url(#clip0)">
<path d="M31.2491 8.15702C31.2491 9.07101 30.5046 9.81551 29.5936 9.81551H23.795C22.881 9.81551 22.1365 9.07403 22.1365 8.15702V2.30692C22.1365 1.39294 22.881 0.648438 23.795 0.648438H29.5936C30.5076 0.648438 31.2491 1.39294 31.2491 2.30692V8.15702Z" fill="#979797"/>
<path d="M31.2491 50.3395C31.2491 51.2535 30.5046 51.995 29.5936 51.995H23.795C22.881 51.995 22.1365 51.2535 22.1365 50.3395V44.4894C22.1365 43.5755 22.881 42.834 23.795 42.834H29.5936C30.5076 42.834 31.2491 43.5755 31.2491 44.4894V50.3395Z" fill="#979797"/>
<path d="M17.0765 40.4098C17.7242 41.0544 17.7242 42.1076 17.0765 42.7553L12.9787 46.8531C12.3311 47.5007 11.2839 47.5007 10.6363 46.8531L6.50215 42.7159C5.85752 42.0713 5.85752 41.0211 6.50215 40.3765L10.5999 36.2787C11.2476 35.6311 12.2978 35.6311 12.9424 36.2787L17.0765 40.4098Z" fill="#979797"/>
<path d="M46.8625 10.6237C47.5071 11.2713 47.5071 12.3215 46.8625 12.9661L42.7647 17.067C42.117 17.7146 41.0669 17.7146 40.4192 17.067L36.2821 12.9298C35.6374 12.2852 35.6374 11.2381 36.2821 10.5904L40.3859 6.48958C41.0305 5.84495 42.0807 5.84495 42.7284 6.48958L46.8625 10.6237Z" fill="#979797"/>
<path d="M17.1521 10.6237C17.7967 11.2713 17.7967 12.3215 17.1521 12.9661L13.0543 17.067C12.4066 17.7146 11.3595 17.7146 10.7088 17.067L6.57466 12.9298C5.93003 12.2852 5.93003 11.2381 6.57466 10.5904L10.6755 6.48958C11.3231 5.84495 12.3733 5.84495 13.0179 6.48958L17.1521 10.6237Z" fill="#979797"/>
<path d="M46.9927 40.4643C47.6374 41.1089 47.6374 42.1591 46.9927 42.8098L42.8949 46.9075C42.2473 47.5552 41.1971 47.5552 40.5525 46.9075L36.4184 42.7704C35.7707 42.1258 35.7707 41.0786 36.4184 40.4279L40.5162 36.3302C41.1638 35.6855 42.211 35.6855 42.8586 36.3302L46.9927 40.4643Z" fill="#979797"/>
<path d="M52.7794 30.4649C52.7794 31.3819 52.0409 32.1234 51.1239 32.1234H45.3283C44.4113 32.1234 43.6729 31.3819 43.6729 30.4649V24.6148C43.6729 23.7008 44.4113 22.9563 45.3313 22.9563H51.127C52.0409 22.9563 52.7824 23.6978 52.7824 24.6148V30.4649H52.7794Z" fill="#979797"/>
<path d="M9.71614 30.4649C9.71614 31.3819 8.97466 32.1234 8.0637 32.1234H2.26203C1.34804 32.1234 0.606567 31.3819 0.606567 30.4649V24.6148C0.606567 23.7008 1.34804 22.9563 2.26203 22.9563H8.0637C8.97466 22.9563 9.71614 23.6978 9.71614 24.6148V30.4649Z" fill="#979797"/>
<path d="M63.62 51.535H58.9351V46.8501H63.62V51.535Z" fill="#979797"/>
<path d="M79.4905 45.479C78.6431 49.9763 75.7801 51.9889 71.7882 51.9889C66.6009 51.9889 63.7379 48.4358 63.7379 43.4362C63.7379 38.3427 66.8188 34.7563 72.0697 34.7563C75.4956 34.7563 79.1122 36.8325 79.3331 40.8879L74.8691 41.0755C74.5877 39.4715 73.6132 38.5606 71.9759 38.5606C69.3338 38.5606 68.5499 40.9515 68.5499 43.2152C68.5499 45.4487 69.1794 48.0575 71.882 48.0575C73.5799 48.0575 74.8056 46.9559 74.9963 45.2581L79.4905 45.479Z" fill="#979797"/>
<path d="M88.2642 51.9889C83.1707 51.9889 79.9929 48.4661 79.9929 43.4664C79.9929 38.1853 83.4188 34.7563 88.703 34.7563C93.7027 34.7563 96.8471 38.4365 96.8471 43.3091C96.8471 48.342 93.3244 51.9889 88.2642 51.9889ZM88.4821 38.4668C85.6826 38.4668 84.7414 40.8576 84.7414 43.2788C84.7414 45.6364 85.6221 48.2149 88.4215 48.2149C91.2846 48.2149 92.1017 45.5426 92.1017 43.1214C92.0987 40.7941 91.218 38.4668 88.4821 38.4668Z" fill="#979797"/>
<path d="M116.501 51.5167V42.964C116.501 41.2026 116.343 39.0659 114.143 39.0659C111.722 39.0659 111.628 41.1421 111.628 42.964V51.5167H106.974V42.3042C106.974 40.9211 106.629 39.0659 104.583 39.0659C102.225 39.0659 102.004 41.2994 102.004 42.8399V51.5197H97.4131V35.2284H102.004V37.3984C102.979 35.5734 104.459 34.8501 106.501 34.8501C108.45 34.8501 110.085 35.7611 110.841 37.6495C111.846 35.8882 113.701 34.8834 115.714 34.8834C116.94 34.8834 118.386 35.2617 119.361 36.0486C121.089 37.4649 121.122 39.193 121.122 41.2359V51.5197H116.501V51.5167Z" fill="#979797"/>
<path d="M126.364 51.5167H121.679V46.8318H126.364V51.5167Z" fill="#979797"/>
<path d="M137.728 50.0368C136.188 51.0446 135.244 51.9858 132.635 51.9858C129.648 51.9858 126.942 50.1941 126.942 46.7349C126.942 43.1819 129.708 41.9562 132.759 41.5143L134.959 41.1996C136.342 41.0119 137.474 40.8848 137.474 39.8468C137.474 38.4939 135.743 38.3366 134.989 38.3366C133.292 38.3366 132.129 38.9661 132.129 40.3794H127.853C128.135 34.9712 133.292 34.7502 134.802 34.7502C139.236 34.7502 142.192 36.0395 142.192 40.8818V47.9243C142.192 49.5919 142.319 50.6602 142.728 51.3835L142.822 51.5076H137.949L137.728 50.0368ZM137.601 43.7176C137.162 43.8749 136.878 44.0021 136.469 44.0959C135.18 44.4409 131.627 44.4742 131.627 46.5806C131.627 47.9334 132.853 48.342 133.797 48.342C134.145 48.342 136.409 48.3117 137.601 46.2356V43.7176Z" fill="#979797"/>
<path d="M152.739 51.5288V49.7371C151.834 51.214 149.81 51.9373 148.157 51.9373C143.106 51.9373 142.764 47.8183 142.764 44.7374V35.2405H147.346V44.5801C147.346 46.3717 147.688 48.1028 149.873 48.1028C152.179 48.1028 152.648 46.1841 152.648 43.7327V35.2435H157.106V51.5318H152.739V51.5288Z" fill="#979797"/>
<path d="M77.36 29.1271V15.8864C77.36 13.7165 76.5368 11.5889 74.0188 11.5889C70.9803 11.5889 70.1571 14.2794 70.1571 16.6672V29.1271H63.7319V6.64066H69.9815V9.24642C71.5462 7.24898 73.586 6.12012 76.1887 6.12012C77.8805 6.12012 79.5753 6.55592 80.9191 7.59702C83.4794 9.55209 83.9152 12.285 83.9152 15.3235V29.1271H77.36Z" fill="#979797"/>
<path d="M91.3635 19.7513C91.7539 22.5296 93.2732 24.5694 96.2239 24.5694C98.2214 24.5694 99.4804 23.8764 100.434 22.1816L106.859 22.6174C105.255 27.4355 101 29.7809 96.0484 29.7809C88.9302 29.7809 84.675 24.7873 84.675 17.8871C84.675 11.1593 89.1451 5.99316 96.0484 5.99316C103.56 5.99316 107.119 11.7222 107.119 18.6679V19.7544H91.3635V19.7513ZM100.394 14.8879C100.176 12.6301 98.527 11.0261 96.227 11.0261C93.4911 11.0261 92.1019 12.3275 91.4089 14.8909H100.394V14.8879Z" fill="#979797"/>
<path d="M137.855 6.64062L131.342 29.127H125.396L121.619 13.9343L117.884 29.127H111.849L105.294 6.64062H111.849L115.278 20.7045L118.795 6.64062H124.439L127.914 20.7045L131.342 6.64062H137.855Z" fill="#979797"/>
<path d="M142.716 21.2253C143.106 24.1337 144.625 24.9569 147.491 24.9569C148.881 24.9569 150.702 24.6543 150.702 22.8747C150.702 18.8375 137.332 22.0939 137.332 13.1084C137.332 7.81215 142.15 5.99023 146.708 5.99023C151.656 5.99023 156.301 8.11782 156.562 13.629L150.569 13.9316C150.439 11.5437 148.487 10.6752 146.62 10.6752C145.403 10.6752 143.494 10.8931 143.494 12.5848C143.494 16.0138 157.209 13.3233 157.209 22.221C157.209 28.0378 151.958 29.775 147.053 29.775C142.277 29.775 136.636 27.6474 136.636 21.7005V21.4402L142.716 21.2253Z" fill="#979797"/>
</g>
<defs>
<clipPath id="clip0">
<rect width="156.609" height="51.3435" fill="white" transform="translate(0.606567 0.648438)"/>
</clipPath>
</defs>
</svg>
